%TF.GenerationSoftware,KiCad,Pcbnew,10.0.6*%
%TF.CreationDate,2026-09-27T19:36:45+00:00*%
%TF.ProjectId,dbfob,6462666f-622e-46b6-9963-61645f706362,rev?*%
%TF.SameCoordinates,Original*%
%TF.FileFunction,Paste,Top*%
%TF.FilePolarity,Positive*%
%FSLAX46Y46*%
G04 Gerber Fmt 4.6, Leading zero omitted, Abs format (unit mm)*
G04 Created by KiCad (PCBNEW 10.0.6) date 2026-09-27 19:36:45*
%MOMM*%
%LPD*%
G01*
G04 APERTURE LIST*
G04 Aperture macros list*
%AMRoundRect*
0 Rectangle with rounded corners*
0 $1 Rounding radius*
0 $2 $3 $4 $5 $6 $7 $8 $9 X,Y pos of 4 corners*
0 Add a 4 corners polygon primitive as box body*
4,1,4,$2,$3,$4,$5,$6,$7,$8,$9,$2,$3,0*
0 Add four circle primitives for the rounded corners*
1,1,$1+$1,$2,$3*
1,1,$1+$1,$4,$5*
1,1,$1+$1,$6,$7*
1,1,$1+$1,$8,$9*
0 Add four rect primitives between the rounded corners*
20,1,$1+$1,$2,$3,$4,$5,0*
20,1,$1+$1,$4,$5,$6,$7,0*
20,1,$1+$1,$6,$7,$8,$9,0*
20,1,$1+$1,$8,$9,$2,$3,0*%
%AMFreePoly0*
4,1,19,0.076537,0.434776,0.141421,0.391421,0.184776,0.326537,0.200000,0.250000,0.200000,0.000000,0.184776,-0.076537,0.141421,-0.141421,0.076537,-0.184776,0.000000,-0.200000,-0.076537,-0.184776,-0.141421,-0.141421,-0.184776,-0.076537,-0.200000,0.000000,-0.200000,0.250000,-0.184776,0.326537,-0.141421,0.391421,-0.076537,0.434776,0.000000,0.450000,0.076537,0.434776,0.076537,0.434776,
$1*%
%AMFreePoly1*
4,1,19,0.076537,0.184776,0.141421,0.141421,0.184776,0.076537,0.200000,0.000000,0.200000,-0.250000,0.184776,-0.326537,0.141421,-0.391421,0.076537,-0.434776,0.000000,-0.450000,-0.076537,-0.434776,-0.141421,-0.391421,-0.184776,-0.326537,-0.200000,-0.250000,-0.200000,0.000000,-0.184776,0.076537,-0.141421,0.141421,-0.076537,0.184776,0.000000,0.200000,0.076537,0.184776,0.076537,0.184776,
$1*%
%AMFreePoly2*
4,1,22,0.057542,0.358826,0.129370,0.328325,0.184059,0.272658,0.213282,0.200300,0.212590,0.122267,0.200000,0.000000,0.212590,-0.122267,0.213282,-0.200300,0.184059,-0.272658,0.129370,-0.328325,0.057542,-0.358826,-0.020491,-0.359518,-0.092849,-0.330295,-0.148516,-0.275607,-0.179017,-0.203778,-0.197661,-0.068352,-0.197661,0.068352,-0.179017,0.203778,-0.148516,0.275607,-0.092849,0.330295,
-0.020491,0.359518,0.057542,0.358826,0.057542,0.358826,$1*%
%AMFreePoly3*
4,1,22,0.239619,0.245557,0.301106,0.197505,0.339523,0.129580,0.349023,0.052124,0.328158,-0.023071,0.280106,-0.084557,0.212181,-0.122975,0.100000,-0.173205,0.000409,-0.245242,-0.066824,-0.284857,-0.144099,-0.295729,-0.219652,-0.276200,-0.281981,-0.229246,-0.321597,-0.162013,-0.332468,-0.084738,-0.312940,-0.009185,-0.265986,0.053144,-0.158025,0.137004,-0.039636,0.205356,0.086969,0.256922,
0.164424,0.266422,0.239619,0.245557,0.239619,0.245557,$1*%
%AMFreePoly4*
4,1,22,-0.066846,0.284852,0.000389,0.245242,0.099986,0.173213,0.212171,0.122991,0.280099,0.084579,0.328156,0.023096,0.349027,-0.052097,0.339534,-0.129554,0.301122,-0.197481,0.239639,-0.245538,0.164445,-0.266409,0.086989,-0.256916,-0.039620,-0.205359,-0.158014,-0.137016,-0.265981,-0.053165,-0.312941,0.009160,-0.332475,0.084712,-0.321610,0.161988,-0.281999,0.229224,-0.219674,0.276183,
-0.144122,0.295717,-0.066846,0.284852,-0.066846,0.284852,$1*%
%AMFreePoly5*
4,1,22,-0.086969,0.256922,0.039636,0.205356,0.158025,0.137004,0.265986,0.053144,0.312940,-0.009185,0.332468,-0.084738,0.321597,-0.162013,0.281981,-0.229246,0.219652,-0.276200,0.144099,-0.295729,0.066824,-0.284857,-0.000409,-0.245242,-0.100000,-0.173205,-0.212181,-0.122975,-0.280106,-0.084557,-0.328158,-0.023071,-0.349023,0.052124,-0.339523,0.129580,-0.301106,0.197505,-0.239619,0.245557,
-0.164424,0.266422,-0.086969,0.256922,-0.086969,0.256922,$1*%
%AMFreePoly6*
4,1,22,0.219650,0.276202,0.281979,0.229248,0.321596,0.162016,0.332468,0.084741,0.312940,0.009187,0.265986,-0.053142,0.158026,-0.137002,0.039638,-0.205355,-0.086966,-0.256923,-0.164422,-0.266423,-0.239617,-0.245559,-0.301104,-0.197507,-0.339522,-0.129583,-0.349022,-0.052127,-0.328158,0.023068,-0.280106,0.084555,-0.212182,0.122973,-0.100002,0.173204,-0.000411,0.245242,0.066822,0.284858,
0.144097,0.295730,0.219650,0.276202,0.219650,0.276202,$1*%
%AMFreePoly7*
4,1,22,0.092849,0.330295,0.148516,0.275607,0.179017,0.203778,0.197661,0.068352,0.197661,-0.068352,0.179017,-0.203778,0.148516,-0.275607,0.092849,-0.330295,0.020491,-0.359518,-0.057542,-0.358826,-0.129370,-0.328325,-0.184059,-0.272658,-0.213282,-0.200300,-0.212590,-0.122267,-0.200000,0.000000,-0.212590,0.122267,-0.213282,0.200300,-0.184059,0.272658,-0.129370,0.328325,-0.057542,0.358826,
0.020491,0.359518,0.092849,0.330295,0.092849,0.330295,$1*%
G04 Aperture macros list end*
%ADD10R,1.000000X0.750000*%
%ADD11RoundRect,0.218750X-0.218750X-0.256250X0.218750X-0.256250X0.218750X0.256250X-0.218750X0.256250X0*%
%ADD12RoundRect,0.225000X-0.225000X-0.250000X0.225000X-0.250000X0.225000X0.250000X-0.225000X0.250000X0*%
%ADD13R,1.270000X5.080000*%
%ADD14RoundRect,0.200000X-0.200000X-0.275000X0.200000X-0.275000X0.200000X0.275000X-0.200000X0.275000X0*%
%ADD15FreePoly0,180.000000*%
%ADD16FreePoly1,180.000000*%
%ADD17FreePoly2,180.000000*%
%ADD18FreePoly3,180.000000*%
%ADD19FreePoly4,180.000000*%
%ADD20FreePoly5,180.000000*%
%ADD21FreePoly6,180.000000*%
%ADD22FreePoly7,180.000000*%
%ADD23RoundRect,0.225000X0.250000X-0.225000X0.250000X0.225000X-0.250000X0.225000X-0.250000X-0.225000X0*%
%ADD24RoundRect,0.100000X0.100000X-0.637500X0.100000X0.637500X-0.100000X0.637500X-0.100000X-0.637500X0*%
G04 APERTURE END LIST*
D10*
%TO.C,SW1*%
X21000000Y27875000D03*
X27000000Y27875000D03*
X21000000Y24125000D03*
X27000000Y24125000D03*
%TD*%
D11*
%TO.C,D4*%
X24712500Y48500000D03*
X26287500Y48500000D03*
%TD*%
D12*
%TO.C,C2*%
X12225000Y28200000D03*
X13775000Y28200000D03*
%TD*%
D13*
%TO.C,BT1*%
X4015000Y11500000D03*
X25985000Y11500000D03*
%TD*%
D14*
%TO.C,R4*%
X3675000Y45500000D03*
X5325000Y45500000D03*
%TD*%
D11*
%TO.C,D1*%
X3712500Y48500000D03*
X5287500Y48500000D03*
%TD*%
%TO.C,D2*%
X8212500Y48500000D03*
X9787500Y48500000D03*
%TD*%
D15*
%TO.C,MK1*%
X16500000Y39775000D03*
D16*
X16500000Y41225000D03*
D15*
X15800000Y39775000D03*
D16*
X15800000Y41225000D03*
D17*
X15120000Y40500000D03*
D18*
X14720000Y39807000D03*
D19*
X14720000Y41193000D03*
D20*
X13920000Y39807000D03*
D21*
X13920000Y41193000D03*
D22*
X13520000Y40500000D03*
%TD*%
D11*
%TO.C,D3*%
X20212500Y48500000D03*
X21787500Y48500000D03*
%TD*%
D14*
%TO.C,R5*%
X8175000Y45500000D03*
X9825000Y45500000D03*
%TD*%
%TO.C,R7*%
X24675000Y45500000D03*
X26325000Y45500000D03*
%TD*%
D12*
%TO.C,C1*%
X16225000Y28200000D03*
X17775000Y28200000D03*
%TD*%
D23*
%TO.C,C3*%
X19500000Y39725000D03*
X19500000Y41275000D03*
%TD*%
D24*
%TO.C,U1*%
X12075000Y30637500D03*
X12725000Y30637500D03*
X13375000Y30637500D03*
X14025000Y30637500D03*
X14675000Y30637500D03*
X15325000Y30637500D03*
X15975000Y30637500D03*
X16625000Y30637500D03*
X17275000Y30637500D03*
X17925000Y30637500D03*
X17925000Y36362500D03*
X17275000Y36362500D03*
X16625000Y36362500D03*
X15975000Y36362500D03*
X15325000Y36362500D03*
X14675000Y36362500D03*
X14025000Y36362500D03*
X13375000Y36362500D03*
X12725000Y36362500D03*
X12075000Y36362500D03*
%TD*%
D14*
%TO.C,R6*%
X20175000Y45500000D03*
X21825000Y45500000D03*
%TD*%
M02*
