%TF.GenerationSoftware,KiCad,Pcbnew,10.0.6*%
%TF.CreationDate,2026-09-27T20:07:23+00:00*%
%TF.ProjectId,dbfob,6462666f-622e-46b6-9963-61645f706362,rev?*%
%TF.SameCoordinates,Original*%
%TF.FileFunction,Legend,Bot*%
%TF.FilePolarity,Positive*%
%FSLAX46Y46*%
G04 Gerber Fmt 4.6, Leading zero omitted, Abs format (unit mm)*
G04 Created by KiCad (PCBNEW 10.0.6) date 2026-09-27 20:07:23*
%MOMM*%
%LPD*%
G01*
G04 APERTURE LIST*
%ADD10C,0.150000*%
%ADD11C,0.180000*%
%ADD12C,0.800000*%
%ADD13C,3.200000*%
%ADD14R,1.700000X1.700000*%
%ADD15C,1.700000*%
G04 APERTURE END LIST*
D10*
X15857142Y42837705D02*
X15857142Y43637705D01*
X15857142Y43637705D02*
X15590476Y43066277D01*
X15590476Y43066277D02*
X15323809Y43637705D01*
X15323809Y43637705D02*
X15323809Y42837705D01*
X14942856Y42837705D02*
X14942856Y43637705D01*
X14104761Y42913896D02*
X14142857Y42875800D01*
X14142857Y42875800D02*
X14257142Y42837705D01*
X14257142Y42837705D02*
X14333333Y42837705D01*
X14333333Y42837705D02*
X14447619Y42875800D01*
X14447619Y42875800D02*
X14523809Y42951991D01*
X14523809Y42951991D02*
X14561904Y43028181D01*
X14561904Y43028181D02*
X14600000Y43180562D01*
X14600000Y43180562D02*
X14600000Y43294848D01*
X14600000Y43294848D02*
X14561904Y43447229D01*
X14561904Y43447229D02*
X14523809Y43523420D01*
X14523809Y43523420D02*
X14447619Y43599610D01*
X14447619Y43599610D02*
X14333333Y43637705D01*
X14333333Y43637705D02*
X14257142Y43637705D01*
X14257142Y43637705D02*
X14142857Y43599610D01*
X14142857Y43599610D02*
X14104761Y43561515D01*
X23380952Y4699610D02*
X23457142Y4737705D01*
X23457142Y4737705D02*
X23571428Y4737705D01*
X23571428Y4737705D02*
X23685714Y4699610D01*
X23685714Y4699610D02*
X23761904Y4623420D01*
X23761904Y4623420D02*
X23799999Y4547229D01*
X23799999Y4547229D02*
X23838095Y4394848D01*
X23838095Y4394848D02*
X23838095Y4280562D01*
X23838095Y4280562D02*
X23799999Y4128181D01*
X23799999Y4128181D02*
X23761904Y4051991D01*
X23761904Y4051991D02*
X23685714Y3975800D01*
X23685714Y3975800D02*
X23571428Y3937705D01*
X23571428Y3937705D02*
X23495237Y3937705D01*
X23495237Y3937705D02*
X23380952Y3975800D01*
X23380952Y3975800D02*
X23342856Y4013896D01*
X23342856Y4013896D02*
X23342856Y4280562D01*
X23342856Y4280562D02*
X23495237Y4280562D01*
X22390476Y4471039D02*
X22999999Y4242467D01*
X22999999Y4242467D02*
X22390476Y4013896D01*
X22009523Y4356753D02*
X21400000Y4356753D01*
X21400000Y4128181D02*
X22009523Y4128181D01*
X20904762Y4394848D02*
X20980952Y4432943D01*
X20980952Y4432943D02*
X21019047Y4471039D01*
X21019047Y4471039D02*
X21057143Y4547229D01*
X21057143Y4547229D02*
X21057143Y4585324D01*
X21057143Y4585324D02*
X21019047Y4661515D01*
X21019047Y4661515D02*
X20980952Y4699610D01*
X20980952Y4699610D02*
X20904762Y4737705D01*
X20904762Y4737705D02*
X20752381Y4737705D01*
X20752381Y4737705D02*
X20676190Y4699610D01*
X20676190Y4699610D02*
X20638095Y4661515D01*
X20638095Y4661515D02*
X20600000Y4585324D01*
X20600000Y4585324D02*
X20600000Y4547229D01*
X20600000Y4547229D02*
X20638095Y4471039D01*
X20638095Y4471039D02*
X20676190Y4432943D01*
X20676190Y4432943D02*
X20752381Y4394848D01*
X20752381Y4394848D02*
X20904762Y4394848D01*
X20904762Y4394848D02*
X20980952Y4356753D01*
X20980952Y4356753D02*
X21019047Y4318658D01*
X21019047Y4318658D02*
X21057143Y4242467D01*
X21057143Y4242467D02*
X21057143Y4090086D01*
X21057143Y4090086D02*
X21019047Y4013896D01*
X21019047Y4013896D02*
X20980952Y3975800D01*
X20980952Y3975800D02*
X20904762Y3937705D01*
X20904762Y3937705D02*
X20752381Y3937705D01*
X20752381Y3937705D02*
X20676190Y3975800D01*
X20676190Y3975800D02*
X20638095Y4013896D01*
X20638095Y4013896D02*
X20600000Y4090086D01*
X20600000Y4090086D02*
X20600000Y4242467D01*
X20600000Y4242467D02*
X20638095Y4318658D01*
X20638095Y4318658D02*
X20676190Y4356753D01*
X20676190Y4356753D02*
X20752381Y4394848D01*
X20333333Y4737705D02*
X19838095Y4737705D01*
X19838095Y4737705D02*
X20104761Y4432943D01*
X20104761Y4432943D02*
X19990476Y4432943D01*
X19990476Y4432943D02*
X19914285Y4394848D01*
X19914285Y4394848D02*
X19876190Y4356753D01*
X19876190Y4356753D02*
X19838095Y4280562D01*
X19838095Y4280562D02*
X19838095Y4090086D01*
X19838095Y4090086D02*
X19876190Y4013896D01*
X19876190Y4013896D02*
X19914285Y3975800D01*
X19914285Y3975800D02*
X19990476Y3937705D01*
X19990476Y3937705D02*
X20219047Y3937705D01*
X20219047Y3937705D02*
X20295238Y3975800D01*
X20295238Y3975800D02*
X20333333Y4013896D01*
X18733332Y4318658D02*
X18733332Y3937705D01*
X18999999Y4737705D02*
X18733332Y4318658D01*
X18733332Y4318658D02*
X18466666Y4737705D01*
X17590476Y4471039D02*
X18199999Y4242467D01*
X18199999Y4242467D02*
X17590476Y4013896D01*
X17209523Y4356753D02*
X16600000Y4356753D01*
X16600000Y4128181D02*
X17209523Y4128181D01*
X16180952Y3937705D02*
X16028571Y3937705D01*
X16028571Y3937705D02*
X15952381Y3975800D01*
X15952381Y3975800D02*
X15914285Y4013896D01*
X15914285Y4013896D02*
X15838095Y4128181D01*
X15838095Y4128181D02*
X15800000Y4280562D01*
X15800000Y4280562D02*
X15800000Y4585324D01*
X15800000Y4585324D02*
X15838095Y4661515D01*
X15838095Y4661515D02*
X15876190Y4699610D01*
X15876190Y4699610D02*
X15952381Y4737705D01*
X15952381Y4737705D02*
X16104762Y4737705D01*
X16104762Y4737705D02*
X16180952Y4699610D01*
X16180952Y4699610D02*
X16219047Y4661515D01*
X16219047Y4661515D02*
X16257143Y4585324D01*
X16257143Y4585324D02*
X16257143Y4394848D01*
X16257143Y4394848D02*
X16219047Y4318658D01*
X16219047Y4318658D02*
X16180952Y4280562D01*
X16180952Y4280562D02*
X16104762Y4242467D01*
X16104762Y4242467D02*
X15952381Y4242467D01*
X15952381Y4242467D02*
X15876190Y4280562D01*
X15876190Y4280562D02*
X15838095Y4318658D01*
X15838095Y4318658D02*
X15800000Y4394848D01*
X15304761Y4737705D02*
X15228571Y4737705D01*
X15228571Y4737705D02*
X15152380Y4699610D01*
X15152380Y4699610D02*
X15114285Y4661515D01*
X15114285Y4661515D02*
X15076190Y4585324D01*
X15076190Y4585324D02*
X15038095Y4432943D01*
X15038095Y4432943D02*
X15038095Y4242467D01*
X15038095Y4242467D02*
X15076190Y4090086D01*
X15076190Y4090086D02*
X15114285Y4013896D01*
X15114285Y4013896D02*
X15152380Y3975800D01*
X15152380Y3975800D02*
X15228571Y3937705D01*
X15228571Y3937705D02*
X15304761Y3937705D01*
X15304761Y3937705D02*
X15380952Y3975800D01*
X15380952Y3975800D02*
X15419047Y4013896D01*
X15419047Y4013896D02*
X15457142Y4090086D01*
X15457142Y4090086D02*
X15495238Y4242467D01*
X15495238Y4242467D02*
X15495238Y4432943D01*
X15495238Y4432943D02*
X15457142Y4585324D01*
X15457142Y4585324D02*
X15419047Y4661515D01*
X15419047Y4661515D02*
X15380952Y4699610D01*
X15380952Y4699610D02*
X15304761Y4737705D01*
X13933332Y4737705D02*
X13780951Y4737705D01*
X13780951Y4737705D02*
X13704761Y4699610D01*
X13704761Y4699610D02*
X13628570Y4623420D01*
X13628570Y4623420D02*
X13590475Y4471039D01*
X13590475Y4471039D02*
X13590475Y4204372D01*
X13590475Y4204372D02*
X13628570Y4051991D01*
X13628570Y4051991D02*
X13704761Y3975800D01*
X13704761Y3975800D02*
X13780951Y3937705D01*
X13780951Y3937705D02*
X13933332Y3937705D01*
X13933332Y3937705D02*
X14009523Y3975800D01*
X14009523Y3975800D02*
X14085713Y4051991D01*
X14085713Y4051991D02*
X14123809Y4204372D01*
X14123809Y4204372D02*
X14123809Y4471039D01*
X14123809Y4471039D02*
X14085713Y4623420D01*
X14085713Y4623420D02*
X14009523Y4699610D01*
X14009523Y4699610D02*
X13933332Y4737705D01*
X12638095Y4471039D02*
X13247618Y4242467D01*
X13247618Y4242467D02*
X12638095Y4013896D01*
X12257142Y4356753D02*
X11647619Y4356753D01*
X11647619Y4128181D02*
X12257142Y4128181D01*
X11228571Y3937705D02*
X11076190Y3937705D01*
X11076190Y3937705D02*
X11000000Y3975800D01*
X11000000Y3975800D02*
X10961904Y4013896D01*
X10961904Y4013896D02*
X10885714Y4128181D01*
X10885714Y4128181D02*
X10847619Y4280562D01*
X10847619Y4280562D02*
X10847619Y4585324D01*
X10847619Y4585324D02*
X10885714Y4661515D01*
X10885714Y4661515D02*
X10923809Y4699610D01*
X10923809Y4699610D02*
X11000000Y4737705D01*
X11000000Y4737705D02*
X11152381Y4737705D01*
X11152381Y4737705D02*
X11228571Y4699610D01*
X11228571Y4699610D02*
X11266666Y4661515D01*
X11266666Y4661515D02*
X11304762Y4585324D01*
X11304762Y4585324D02*
X11304762Y4394848D01*
X11304762Y4394848D02*
X11266666Y4318658D01*
X11266666Y4318658D02*
X11228571Y4280562D01*
X11228571Y4280562D02*
X11152381Y4242467D01*
X11152381Y4242467D02*
X11000000Y4242467D01*
X11000000Y4242467D02*
X10923809Y4280562D01*
X10923809Y4280562D02*
X10885714Y4318658D01*
X10885714Y4318658D02*
X10847619Y4394848D01*
X10161904Y4737705D02*
X10314285Y4737705D01*
X10314285Y4737705D02*
X10390476Y4699610D01*
X10390476Y4699610D02*
X10428571Y4661515D01*
X10428571Y4661515D02*
X10504761Y4547229D01*
X10504761Y4547229D02*
X10542857Y4394848D01*
X10542857Y4394848D02*
X10542857Y4090086D01*
X10542857Y4090086D02*
X10504761Y4013896D01*
X10504761Y4013896D02*
X10466666Y3975800D01*
X10466666Y3975800D02*
X10390476Y3937705D01*
X10390476Y3937705D02*
X10238095Y3937705D01*
X10238095Y3937705D02*
X10161904Y3975800D01*
X10161904Y3975800D02*
X10123809Y4013896D01*
X10123809Y4013896D02*
X10085714Y4090086D01*
X10085714Y4090086D02*
X10085714Y4280562D01*
X10085714Y4280562D02*
X10123809Y4356753D01*
X10123809Y4356753D02*
X10161904Y4394848D01*
X10161904Y4394848D02*
X10238095Y4432943D01*
X10238095Y4432943D02*
X10390476Y4432943D01*
X10390476Y4432943D02*
X10466666Y4394848D01*
X10466666Y4394848D02*
X10504761Y4356753D01*
X10504761Y4356753D02*
X10542857Y4280562D01*
X8676189Y3937705D02*
X8942856Y4318658D01*
X9133332Y3937705D02*
X9133332Y4737705D01*
X9133332Y4737705D02*
X8828570Y4737705D01*
X8828570Y4737705D02*
X8752380Y4699610D01*
X8752380Y4699610D02*
X8714285Y4661515D01*
X8714285Y4661515D02*
X8676189Y4585324D01*
X8676189Y4585324D02*
X8676189Y4471039D01*
X8676189Y4471039D02*
X8714285Y4394848D01*
X8714285Y4394848D02*
X8752380Y4356753D01*
X8752380Y4356753D02*
X8828570Y4318658D01*
X8828570Y4318658D02*
X9133332Y4318658D01*
X8333332Y4471039D02*
X7723809Y4242467D01*
X7723809Y4242467D02*
X8333332Y4013896D01*
X7304761Y3937705D02*
X7152380Y3937705D01*
X7152380Y3937705D02*
X7076190Y3975800D01*
X7076190Y3975800D02*
X7038094Y4013896D01*
X7038094Y4013896D02*
X6961904Y4128181D01*
X6961904Y4128181D02*
X6923809Y4280562D01*
X6923809Y4280562D02*
X6923809Y4585324D01*
X6923809Y4585324D02*
X6961904Y4661515D01*
X6961904Y4661515D02*
X6999999Y4699610D01*
X6999999Y4699610D02*
X7076190Y4737705D01*
X7076190Y4737705D02*
X7228571Y4737705D01*
X7228571Y4737705D02*
X7304761Y4699610D01*
X7304761Y4699610D02*
X7342856Y4661515D01*
X7342856Y4661515D02*
X7380952Y4585324D01*
X7380952Y4585324D02*
X7380952Y4394848D01*
X7380952Y4394848D02*
X7342856Y4318658D01*
X7342856Y4318658D02*
X7304761Y4280562D01*
X7304761Y4280562D02*
X7228571Y4242467D01*
X7228571Y4242467D02*
X7076190Y4242467D01*
X7076190Y4242467D02*
X6999999Y4280562D01*
X6999999Y4280562D02*
X6961904Y4318658D01*
X6961904Y4318658D02*
X6923809Y4394848D01*
X6238094Y4737705D02*
X6390475Y4737705D01*
X6390475Y4737705D02*
X6466666Y4699610D01*
X6466666Y4699610D02*
X6504761Y4661515D01*
X6504761Y4661515D02*
X6580951Y4547229D01*
X6580951Y4547229D02*
X6619047Y4394848D01*
X6619047Y4394848D02*
X6619047Y4090086D01*
X6619047Y4090086D02*
X6580951Y4013896D01*
X6580951Y4013896D02*
X6542856Y3975800D01*
X6542856Y3975800D02*
X6466666Y3937705D01*
X6466666Y3937705D02*
X6314285Y3937705D01*
X6314285Y3937705D02*
X6238094Y3975800D01*
X6238094Y3975800D02*
X6199999Y4013896D01*
X6199999Y4013896D02*
X6161904Y4090086D01*
X6161904Y4090086D02*
X6161904Y4280562D01*
X6161904Y4280562D02*
X6199999Y4356753D01*
X6199999Y4356753D02*
X6238094Y4394848D01*
X6238094Y4394848D02*
X6314285Y4432943D01*
X6314285Y4432943D02*
X6466666Y4432943D01*
X6466666Y4432943D02*
X6542856Y4394848D01*
X6542856Y4394848D02*
X6580951Y4356753D01*
X6580951Y4356753D02*
X6619047Y4280562D01*
X22466666Y2137705D02*
X22466666Y2937705D01*
X22466666Y2175800D02*
X22542857Y2137705D01*
X22542857Y2137705D02*
X22695238Y2137705D01*
X22695238Y2137705D02*
X22771428Y2175800D01*
X22771428Y2175800D02*
X22809523Y2213896D01*
X22809523Y2213896D02*
X22847619Y2290086D01*
X22847619Y2290086D02*
X22847619Y2518658D01*
X22847619Y2518658D02*
X22809523Y2594848D01*
X22809523Y2594848D02*
X22771428Y2632943D01*
X22771428Y2632943D02*
X22695238Y2671039D01*
X22695238Y2671039D02*
X22542857Y2671039D01*
X22542857Y2671039D02*
X22466666Y2632943D01*
X21819047Y2556753D02*
X21704761Y2518658D01*
X21704761Y2518658D02*
X21666666Y2480562D01*
X21666666Y2480562D02*
X21628570Y2404372D01*
X21628570Y2404372D02*
X21628570Y2290086D01*
X21628570Y2290086D02*
X21666666Y2213896D01*
X21666666Y2213896D02*
X21704761Y2175800D01*
X21704761Y2175800D02*
X21780951Y2137705D01*
X21780951Y2137705D02*
X22085713Y2137705D01*
X22085713Y2137705D02*
X22085713Y2937705D01*
X22085713Y2937705D02*
X21819047Y2937705D01*
X21819047Y2937705D02*
X21742856Y2899610D01*
X21742856Y2899610D02*
X21704761Y2861515D01*
X21704761Y2861515D02*
X21666666Y2785324D01*
X21666666Y2785324D02*
X21666666Y2709134D01*
X21666666Y2709134D02*
X21704761Y2632943D01*
X21704761Y2632943D02*
X21742856Y2594848D01*
X21742856Y2594848D02*
X21819047Y2556753D01*
X21819047Y2556753D02*
X22085713Y2556753D01*
X21323809Y2366277D02*
X20942856Y2366277D01*
X21399999Y2137705D02*
X21133332Y2937705D01*
X21133332Y2937705D02*
X20866666Y2137705D01*
X19647618Y2137705D02*
X19647618Y2556753D01*
X19647618Y2556753D02*
X19685713Y2632943D01*
X19685713Y2632943D02*
X19761904Y2671039D01*
X19761904Y2671039D02*
X19914285Y2671039D01*
X19914285Y2671039D02*
X19990475Y2632943D01*
X19647618Y2175800D02*
X19723809Y2137705D01*
X19723809Y2137705D02*
X19914285Y2137705D01*
X19914285Y2137705D02*
X19990475Y2175800D01*
X19990475Y2175800D02*
X20028571Y2251991D01*
X20028571Y2251991D02*
X20028571Y2328181D01*
X20028571Y2328181D02*
X19990475Y2404372D01*
X19990475Y2404372D02*
X19914285Y2442467D01*
X19914285Y2442467D02*
X19723809Y2442467D01*
X19723809Y2442467D02*
X19647618Y2480562D01*
X19380951Y2671039D02*
X19076189Y2671039D01*
X19266665Y2937705D02*
X19266665Y2251991D01*
X19266665Y2251991D02*
X19228570Y2175800D01*
X19228570Y2175800D02*
X19152380Y2137705D01*
X19152380Y2137705D02*
X19076189Y2137705D01*
X17895236Y2175800D02*
X17971427Y2137705D01*
X17971427Y2137705D02*
X18123808Y2137705D01*
X18123808Y2137705D02*
X18199998Y2175800D01*
X18199998Y2175800D02*
X18238094Y2251991D01*
X18238094Y2251991D02*
X18238094Y2556753D01*
X18238094Y2556753D02*
X18199998Y2632943D01*
X18199998Y2632943D02*
X18123808Y2671039D01*
X18123808Y2671039D02*
X17971427Y2671039D01*
X17971427Y2671039D02*
X17895236Y2632943D01*
X17895236Y2632943D02*
X17857141Y2556753D01*
X17857141Y2556753D02*
X17857141Y2480562D01*
X17857141Y2480562D02*
X18238094Y2404372D01*
X17171427Y2137705D02*
X17171427Y2556753D01*
X17171427Y2556753D02*
X17209522Y2632943D01*
X17209522Y2632943D02*
X17285713Y2671039D01*
X17285713Y2671039D02*
X17438094Y2671039D01*
X17438094Y2671039D02*
X17514284Y2632943D01*
X17171427Y2175800D02*
X17247618Y2137705D01*
X17247618Y2137705D02*
X17438094Y2137705D01*
X17438094Y2137705D02*
X17514284Y2175800D01*
X17514284Y2175800D02*
X17552380Y2251991D01*
X17552380Y2251991D02*
X17552380Y2328181D01*
X17552380Y2328181D02*
X17514284Y2404372D01*
X17514284Y2404372D02*
X17438094Y2442467D01*
X17438094Y2442467D02*
X17247618Y2442467D01*
X17247618Y2442467D02*
X17171427Y2480562D01*
X16790474Y2137705D02*
X16790474Y2671039D01*
X16790474Y2518658D02*
X16752379Y2594848D01*
X16752379Y2594848D02*
X16714284Y2632943D01*
X16714284Y2632943D02*
X16638093Y2671039D01*
X16638093Y2671039D02*
X16561903Y2671039D01*
X14619045Y2213896D02*
X14657141Y2175800D01*
X14657141Y2175800D02*
X14771426Y2137705D01*
X14771426Y2137705D02*
X14847617Y2137705D01*
X14847617Y2137705D02*
X14961903Y2175800D01*
X14961903Y2175800D02*
X15038093Y2251991D01*
X15038093Y2251991D02*
X15076188Y2328181D01*
X15076188Y2328181D02*
X15114284Y2480562D01*
X15114284Y2480562D02*
X15114284Y2594848D01*
X15114284Y2594848D02*
X15076188Y2747229D01*
X15076188Y2747229D02*
X15038093Y2823420D01*
X15038093Y2823420D02*
X14961903Y2899610D01*
X14961903Y2899610D02*
X14847617Y2937705D01*
X14847617Y2937705D02*
X14771426Y2937705D01*
X14771426Y2937705D02*
X14657141Y2899610D01*
X14657141Y2899610D02*
X14619045Y2861515D01*
X14276188Y2556753D02*
X14009522Y2556753D01*
X13895236Y2137705D02*
X14276188Y2137705D01*
X14276188Y2137705D02*
X14276188Y2937705D01*
X14276188Y2937705D02*
X13895236Y2937705D01*
X13095235Y2137705D02*
X13361902Y2518658D01*
X13552378Y2137705D02*
X13552378Y2937705D01*
X13552378Y2937705D02*
X13247616Y2937705D01*
X13247616Y2937705D02*
X13171426Y2899610D01*
X13171426Y2899610D02*
X13133331Y2861515D01*
X13133331Y2861515D02*
X13095235Y2785324D01*
X13095235Y2785324D02*
X13095235Y2671039D01*
X13095235Y2671039D02*
X13133331Y2594848D01*
X13133331Y2594848D02*
X13171426Y2556753D01*
X13171426Y2556753D02*
X13247616Y2518658D01*
X13247616Y2518658D02*
X13552378Y2518658D01*
X12752378Y2137705D02*
X12752378Y2937705D01*
X12752378Y2937705D02*
X12295235Y2137705D01*
X12295235Y2137705D02*
X12295235Y2937705D01*
X11914283Y2442467D02*
X11304760Y2442467D01*
X10771426Y2937705D02*
X10619045Y2937705D01*
X10619045Y2937705D02*
X10542855Y2899610D01*
X10542855Y2899610D02*
X10466664Y2823420D01*
X10466664Y2823420D02*
X10428569Y2671039D01*
X10428569Y2671039D02*
X10428569Y2404372D01*
X10428569Y2404372D02*
X10466664Y2251991D01*
X10466664Y2251991D02*
X10542855Y2175800D01*
X10542855Y2175800D02*
X10619045Y2137705D01*
X10619045Y2137705D02*
X10771426Y2137705D01*
X10771426Y2137705D02*
X10847617Y2175800D01*
X10847617Y2175800D02*
X10923807Y2251991D01*
X10923807Y2251991D02*
X10961903Y2404372D01*
X10961903Y2404372D02*
X10961903Y2671039D01*
X10961903Y2671039D02*
X10923807Y2823420D01*
X10923807Y2823420D02*
X10847617Y2899610D01*
X10847617Y2899610D02*
X10771426Y2937705D01*
X10085712Y2137705D02*
X10085712Y2937705D01*
X10085712Y2556753D02*
X9628569Y2556753D01*
X9628569Y2137705D02*
X9628569Y2937705D01*
X8866665Y2137705D02*
X9247617Y2137705D01*
X9247617Y2137705D02*
X9247617Y2937705D01*
X8599998Y2442467D02*
X7990475Y2442467D01*
X7609522Y2137705D02*
X7609522Y2937705D01*
X7609522Y2937705D02*
X7304760Y2937705D01*
X7304760Y2937705D02*
X7228570Y2899610D01*
X7228570Y2899610D02*
X7190475Y2861515D01*
X7190475Y2861515D02*
X7152379Y2785324D01*
X7152379Y2785324D02*
X7152379Y2671039D01*
X7152379Y2671039D02*
X7190475Y2594848D01*
X7190475Y2594848D02*
X7228570Y2556753D01*
X7228570Y2556753D02*
X7304760Y2518658D01*
X7304760Y2518658D02*
X7609522Y2518658D01*
X21128572Y18534300D02*
X21042858Y18491443D01*
X21042858Y18491443D02*
X20871429Y18491443D01*
X20871429Y18491443D02*
X20785715Y18534300D01*
X20785715Y18534300D02*
X20742858Y18620015D01*
X20742858Y18620015D02*
X20742858Y18662872D01*
X20742858Y18662872D02*
X20785715Y18748586D01*
X20785715Y18748586D02*
X20871429Y18791443D01*
X20871429Y18791443D02*
X21000001Y18791443D01*
X21000001Y18791443D02*
X21085715Y18834300D01*
X21085715Y18834300D02*
X21128572Y18920015D01*
X21128572Y18920015D02*
X21128572Y18962872D01*
X21128572Y18962872D02*
X21085715Y19048586D01*
X21085715Y19048586D02*
X21000001Y19091443D01*
X21000001Y19091443D02*
X20871429Y19091443D01*
X20871429Y19091443D02*
X20785715Y19048586D01*
X20485715Y19091443D02*
X20142858Y19091443D01*
X20357144Y19391443D02*
X20357144Y18620015D01*
X20357144Y18620015D02*
X20314287Y18534300D01*
X20314287Y18534300D02*
X20228572Y18491443D01*
X20228572Y18491443D02*
X20142858Y18491443D01*
X19500001Y18534300D02*
X19585715Y18491443D01*
X19585715Y18491443D02*
X19757144Y18491443D01*
X19757144Y18491443D02*
X19842858Y18534300D01*
X19842858Y18534300D02*
X19885715Y18620015D01*
X19885715Y18620015D02*
X19885715Y18962872D01*
X19885715Y18962872D02*
X19842858Y19048586D01*
X19842858Y19048586D02*
X19757144Y19091443D01*
X19757144Y19091443D02*
X19585715Y19091443D01*
X19585715Y19091443D02*
X19500001Y19048586D01*
X19500001Y19048586D02*
X19457144Y18962872D01*
X19457144Y18962872D02*
X19457144Y18877158D01*
X19457144Y18877158D02*
X19885715Y18791443D01*
X18685715Y18491443D02*
X18685715Y18962872D01*
X18685715Y18962872D02*
X18728572Y19048586D01*
X18728572Y19048586D02*
X18814286Y19091443D01*
X18814286Y19091443D02*
X18985715Y19091443D01*
X18985715Y19091443D02*
X19071429Y19048586D01*
X18685715Y18534300D02*
X18771429Y18491443D01*
X18771429Y18491443D02*
X18985715Y18491443D01*
X18985715Y18491443D02*
X19071429Y18534300D01*
X19071429Y18534300D02*
X19114286Y18620015D01*
X19114286Y18620015D02*
X19114286Y18705729D01*
X19114286Y18705729D02*
X19071429Y18791443D01*
X19071429Y18791443D02*
X18985715Y18834300D01*
X18985715Y18834300D02*
X18771429Y18834300D01*
X18771429Y18834300D02*
X18685715Y18877158D01*
X17871429Y18491443D02*
X17871429Y19391443D01*
X17871429Y18534300D02*
X17957143Y18491443D01*
X17957143Y18491443D02*
X18128571Y18491443D01*
X18128571Y18491443D02*
X18214286Y18534300D01*
X18214286Y18534300D02*
X18257143Y18577158D01*
X18257143Y18577158D02*
X18300000Y18662872D01*
X18300000Y18662872D02*
X18300000Y18920015D01*
X18300000Y18920015D02*
X18257143Y19005729D01*
X18257143Y19005729D02*
X18214286Y19048586D01*
X18214286Y19048586D02*
X18128571Y19091443D01*
X18128571Y19091443D02*
X17957143Y19091443D01*
X17957143Y19091443D02*
X17871429Y19048586D01*
X17528571Y19091443D02*
X17314285Y18491443D01*
X17100000Y19091443D02*
X17314285Y18491443D01*
X17314285Y18491443D02*
X17400000Y18277158D01*
X17400000Y18277158D02*
X17442857Y18234300D01*
X17442857Y18234300D02*
X17528571Y18191443D01*
X16071429Y18962872D02*
X15385715Y18962872D01*
X15385715Y18705729D02*
X16071429Y18705729D01*
X14271429Y18491443D02*
X14271429Y19391443D01*
X14271429Y19048586D02*
X14185715Y19091443D01*
X14185715Y19091443D02*
X14014286Y19091443D01*
X14014286Y19091443D02*
X13928572Y19048586D01*
X13928572Y19048586D02*
X13885715Y19005729D01*
X13885715Y19005729D02*
X13842857Y18920015D01*
X13842857Y18920015D02*
X13842857Y18662872D01*
X13842857Y18662872D02*
X13885715Y18577158D01*
X13885715Y18577158D02*
X13928572Y18534300D01*
X13928572Y18534300D02*
X14014286Y18491443D01*
X14014286Y18491443D02*
X14185715Y18491443D01*
X14185715Y18491443D02*
X14271429Y18534300D01*
X13071429Y18491443D02*
X13071429Y18962872D01*
X13071429Y18962872D02*
X13114286Y19048586D01*
X13114286Y19048586D02*
X13200000Y19091443D01*
X13200000Y19091443D02*
X13371429Y19091443D01*
X13371429Y19091443D02*
X13457143Y19048586D01*
X13071429Y18534300D02*
X13157143Y18491443D01*
X13157143Y18491443D02*
X13371429Y18491443D01*
X13371429Y18491443D02*
X13457143Y18534300D01*
X13457143Y18534300D02*
X13500000Y18620015D01*
X13500000Y18620015D02*
X13500000Y18705729D01*
X13500000Y18705729D02*
X13457143Y18791443D01*
X13457143Y18791443D02*
X13371429Y18834300D01*
X13371429Y18834300D02*
X13157143Y18834300D01*
X13157143Y18834300D02*
X13071429Y18877158D01*
X12642857Y18491443D02*
X12642857Y19091443D01*
X12642857Y18920015D02*
X12600000Y19005729D01*
X12600000Y19005729D02*
X12557143Y19048586D01*
X12557143Y19048586D02*
X12471428Y19091443D01*
X12471428Y19091443D02*
X12385714Y19091443D01*
X11742857Y18534300D02*
X11828571Y18491443D01*
X11828571Y18491443D02*
X12000000Y18491443D01*
X12000000Y18491443D02*
X12085714Y18534300D01*
X12085714Y18534300D02*
X12128571Y18620015D01*
X12128571Y18620015D02*
X12128571Y18962872D01*
X12128571Y18962872D02*
X12085714Y19048586D01*
X12085714Y19048586D02*
X12000000Y19091443D01*
X12000000Y19091443D02*
X11828571Y19091443D01*
X11828571Y19091443D02*
X11742857Y19048586D01*
X11742857Y19048586D02*
X11700000Y18962872D01*
X11700000Y18962872D02*
X11700000Y18877158D01*
X11700000Y18877158D02*
X12128571Y18791443D01*
X10285714Y18534300D02*
X10371428Y18491443D01*
X10371428Y18491443D02*
X10542857Y18491443D01*
X10542857Y18491443D02*
X10628571Y18534300D01*
X10628571Y18534300D02*
X10671428Y18620015D01*
X10671428Y18620015D02*
X10671428Y18962872D01*
X10671428Y18962872D02*
X10628571Y19048586D01*
X10628571Y19048586D02*
X10542857Y19091443D01*
X10542857Y19091443D02*
X10371428Y19091443D01*
X10371428Y19091443D02*
X10285714Y19048586D01*
X10285714Y19048586D02*
X10242857Y18962872D01*
X10242857Y18962872D02*
X10242857Y18877158D01*
X10242857Y18877158D02*
X10671428Y18791443D01*
X9471428Y18491443D02*
X9471428Y18962872D01*
X9471428Y18962872D02*
X9514285Y19048586D01*
X9514285Y19048586D02*
X9599999Y19091443D01*
X9599999Y19091443D02*
X9771428Y19091443D01*
X9771428Y19091443D02*
X9857142Y19048586D01*
X9471428Y18534300D02*
X9557142Y18491443D01*
X9557142Y18491443D02*
X9771428Y18491443D01*
X9771428Y18491443D02*
X9857142Y18534300D01*
X9857142Y18534300D02*
X9899999Y18620015D01*
X9899999Y18620015D02*
X9899999Y18705729D01*
X9899999Y18705729D02*
X9857142Y18791443D01*
X9857142Y18791443D02*
X9771428Y18834300D01*
X9771428Y18834300D02*
X9557142Y18834300D01*
X9557142Y18834300D02*
X9471428Y18877158D01*
X9042856Y18491443D02*
X9042856Y19091443D01*
X9042856Y18920015D02*
X8999999Y19005729D01*
X8999999Y19005729D02*
X8957142Y19048586D01*
X8957142Y19048586D02*
X8871427Y19091443D01*
X8871427Y19091443D02*
X8785713Y19091443D01*
X21171428Y16891443D02*
X21171428Y17791443D01*
X21171428Y17448586D02*
X21085714Y17491443D01*
X21085714Y17491443D02*
X20914285Y17491443D01*
X20914285Y17491443D02*
X20828571Y17448586D01*
X20828571Y17448586D02*
X20785714Y17405729D01*
X20785714Y17405729D02*
X20742856Y17320015D01*
X20742856Y17320015D02*
X20742856Y17062872D01*
X20742856Y17062872D02*
X20785714Y16977158D01*
X20785714Y16977158D02*
X20828571Y16934300D01*
X20828571Y16934300D02*
X20914285Y16891443D01*
X20914285Y16891443D02*
X21085714Y16891443D01*
X21085714Y16891443D02*
X21171428Y16934300D01*
X20228570Y16891443D02*
X20314285Y16934300D01*
X20314285Y16934300D02*
X20357142Y17020015D01*
X20357142Y17020015D02*
X20357142Y17791443D01*
X19885713Y16891443D02*
X19885713Y17491443D01*
X19885713Y17791443D02*
X19928570Y17748586D01*
X19928570Y17748586D02*
X19885713Y17705729D01*
X19885713Y17705729D02*
X19842856Y17748586D01*
X19842856Y17748586D02*
X19885713Y17791443D01*
X19885713Y17791443D02*
X19885713Y17705729D01*
X19457142Y17491443D02*
X19457142Y16891443D01*
X19457142Y17405729D02*
X19414285Y17448586D01*
X19414285Y17448586D02*
X19328570Y17491443D01*
X19328570Y17491443D02*
X19199999Y17491443D01*
X19199999Y17491443D02*
X19114285Y17448586D01*
X19114285Y17448586D02*
X19071428Y17362872D01*
X19071428Y17362872D02*
X19071428Y16891443D01*
X18642856Y16891443D02*
X18642856Y17791443D01*
X18557142Y17234300D02*
X18299999Y16891443D01*
X18299999Y17491443D02*
X18642856Y17148586D01*
X17228571Y17362872D02*
X16542857Y17362872D01*
X16542857Y17105729D02*
X17228571Y17105729D01*
X15514285Y17491443D02*
X15342857Y16891443D01*
X15342857Y16891443D02*
X15171428Y17320015D01*
X15171428Y17320015D02*
X14999999Y16891443D01*
X14999999Y16891443D02*
X14828571Y17491443D01*
X14485714Y16891443D02*
X14485714Y17491443D01*
X14485714Y17791443D02*
X14528571Y17748586D01*
X14528571Y17748586D02*
X14485714Y17705729D01*
X14485714Y17705729D02*
X14442857Y17748586D01*
X14442857Y17748586D02*
X14485714Y17791443D01*
X14485714Y17791443D02*
X14485714Y17705729D01*
X14185714Y17491443D02*
X13842857Y17491443D01*
X14057143Y17791443D02*
X14057143Y17020015D01*
X14057143Y17020015D02*
X14014286Y16934300D01*
X14014286Y16934300D02*
X13928571Y16891443D01*
X13928571Y16891443D02*
X13842857Y16891443D01*
X13542857Y16891443D02*
X13542857Y17791443D01*
X13157143Y16891443D02*
X13157143Y17362872D01*
X13157143Y17362872D02*
X13200000Y17448586D01*
X13200000Y17448586D02*
X13285714Y17491443D01*
X13285714Y17491443D02*
X13414285Y17491443D01*
X13414285Y17491443D02*
X13500000Y17448586D01*
X13500000Y17448586D02*
X13542857Y17405729D01*
X12042857Y17491443D02*
X12042857Y16591443D01*
X12042857Y17448586D02*
X11957143Y17491443D01*
X11957143Y17491443D02*
X11785714Y17491443D01*
X11785714Y17491443D02*
X11700000Y17448586D01*
X11700000Y17448586D02*
X11657143Y17405729D01*
X11657143Y17405729D02*
X11614285Y17320015D01*
X11614285Y17320015D02*
X11614285Y17062872D01*
X11614285Y17062872D02*
X11657143Y16977158D01*
X11657143Y16977158D02*
X11700000Y16934300D01*
X11700000Y16934300D02*
X11785714Y16891443D01*
X11785714Y16891443D02*
X11957143Y16891443D01*
X11957143Y16891443D02*
X12042857Y16934300D01*
X11099999Y16891443D02*
X11185714Y16934300D01*
X11185714Y16934300D02*
X11228571Y17020015D01*
X11228571Y17020015D02*
X11228571Y17791443D01*
X10371428Y17491443D02*
X10371428Y16891443D01*
X10757142Y17491443D02*
X10757142Y17020015D01*
X10757142Y17020015D02*
X10714285Y16934300D01*
X10714285Y16934300D02*
X10628570Y16891443D01*
X10628570Y16891443D02*
X10499999Y16891443D01*
X10499999Y16891443D02*
X10414285Y16934300D01*
X10414285Y16934300D02*
X10371428Y16977158D01*
X9557142Y17491443D02*
X9557142Y16762872D01*
X9557142Y16762872D02*
X9599999Y16677158D01*
X9599999Y16677158D02*
X9642856Y16634300D01*
X9642856Y16634300D02*
X9728570Y16591443D01*
X9728570Y16591443D02*
X9857142Y16591443D01*
X9857142Y16591443D02*
X9942856Y16634300D01*
X9557142Y16934300D02*
X9642856Y16891443D01*
X9642856Y16891443D02*
X9814284Y16891443D01*
X9814284Y16891443D02*
X9899999Y16934300D01*
X9899999Y16934300D02*
X9942856Y16977158D01*
X9942856Y16977158D02*
X9985713Y17062872D01*
X9985713Y17062872D02*
X9985713Y17320015D01*
X9985713Y17320015D02*
X9942856Y17405729D01*
X9942856Y17405729D02*
X9899999Y17448586D01*
X9899999Y17448586D02*
X9814284Y17491443D01*
X9814284Y17491443D02*
X9642856Y17491443D01*
X9642856Y17491443D02*
X9557142Y17448586D01*
X9171427Y16934300D02*
X9085713Y16891443D01*
X9085713Y16891443D02*
X8914284Y16891443D01*
X8914284Y16891443D02*
X8828570Y16934300D01*
X8828570Y16934300D02*
X8785713Y17020015D01*
X8785713Y17020015D02*
X8785713Y17062872D01*
X8785713Y17062872D02*
X8828570Y17148586D01*
X8828570Y17148586D02*
X8914284Y17191443D01*
X8914284Y17191443D02*
X9042856Y17191443D01*
X9042856Y17191443D02*
X9128570Y17234300D01*
X9128570Y17234300D02*
X9171427Y17320015D01*
X9171427Y17320015D02*
X9171427Y17362872D01*
X9171427Y17362872D02*
X9128570Y17448586D01*
X9128570Y17448586D02*
X9042856Y17491443D01*
X9042856Y17491443D02*
X8914284Y17491443D01*
X8914284Y17491443D02*
X8828570Y17448586D01*
D11*
X19485713Y20354218D02*
X19485713Y21554218D01*
X19485713Y20411360D02*
X19599998Y20354218D01*
X19599998Y20354218D02*
X19828570Y20354218D01*
X19828570Y20354218D02*
X19942855Y20411360D01*
X19942855Y20411360D02*
X19999998Y20468503D01*
X19999998Y20468503D02*
X20057141Y20582789D01*
X20057141Y20582789D02*
X20057141Y20925646D01*
X20057141Y20925646D02*
X19999998Y21039932D01*
X19999998Y21039932D02*
X19942855Y21097075D01*
X19942855Y21097075D02*
X19828570Y21154218D01*
X19828570Y21154218D02*
X19599998Y21154218D01*
X19599998Y21154218D02*
X19485713Y21097075D01*
X18914284Y20354218D02*
X18914284Y21554218D01*
X18914284Y21097075D02*
X18799999Y21154218D01*
X18799999Y21154218D02*
X18571427Y21154218D01*
X18571427Y21154218D02*
X18457141Y21097075D01*
X18457141Y21097075D02*
X18399999Y21039932D01*
X18399999Y21039932D02*
X18342856Y20925646D01*
X18342856Y20925646D02*
X18342856Y20582789D01*
X18342856Y20582789D02*
X18399999Y20468503D01*
X18399999Y20468503D02*
X18457141Y20411360D01*
X18457141Y20411360D02*
X18571427Y20354218D01*
X18571427Y20354218D02*
X18799999Y20354218D01*
X18799999Y20354218D02*
X18914284Y20411360D01*
X17999999Y21154218D02*
X17542856Y21154218D01*
X17828570Y20354218D02*
X17828570Y21382789D01*
X17828570Y21382789D02*
X17771427Y21497075D01*
X17771427Y21497075D02*
X17657142Y21554218D01*
X17657142Y21554218D02*
X17542856Y21554218D01*
X16971428Y20354218D02*
X17085713Y20411360D01*
X17085713Y20411360D02*
X17142856Y20468503D01*
X17142856Y20468503D02*
X17199999Y20582789D01*
X17199999Y20582789D02*
X17199999Y20925646D01*
X17199999Y20925646D02*
X17142856Y21039932D01*
X17142856Y21039932D02*
X17085713Y21097075D01*
X17085713Y21097075D02*
X16971428Y21154218D01*
X16971428Y21154218D02*
X16799999Y21154218D01*
X16799999Y21154218D02*
X16685713Y21097075D01*
X16685713Y21097075D02*
X16628571Y21039932D01*
X16628571Y21039932D02*
X16571428Y20925646D01*
X16571428Y20925646D02*
X16571428Y20582789D01*
X16571428Y20582789D02*
X16628571Y20468503D01*
X16628571Y20468503D02*
X16685713Y20411360D01*
X16685713Y20411360D02*
X16799999Y20354218D01*
X16799999Y20354218D02*
X16971428Y20354218D01*
X16057142Y20354218D02*
X16057142Y21554218D01*
X16057142Y21097075D02*
X15942857Y21154218D01*
X15942857Y21154218D02*
X15714285Y21154218D01*
X15714285Y21154218D02*
X15599999Y21097075D01*
X15599999Y21097075D02*
X15542857Y21039932D01*
X15542857Y21039932D02*
X15485714Y20925646D01*
X15485714Y20925646D02*
X15485714Y20582789D01*
X15485714Y20582789D02*
X15542857Y20468503D01*
X15542857Y20468503D02*
X15599999Y20411360D01*
X15599999Y20411360D02*
X15714285Y20354218D01*
X15714285Y20354218D02*
X15942857Y20354218D01*
X15942857Y20354218D02*
X16057142Y20411360D01*
X14057142Y20354218D02*
X14057142Y21154218D01*
X14057142Y20925646D02*
X13999999Y21039932D01*
X13999999Y21039932D02*
X13942857Y21097075D01*
X13942857Y21097075D02*
X13828571Y21154218D01*
X13828571Y21154218D02*
X13714285Y21154218D01*
X12857142Y20411360D02*
X12971428Y20354218D01*
X12971428Y20354218D02*
X13200000Y20354218D01*
X13200000Y20354218D02*
X13314285Y20411360D01*
X13314285Y20411360D02*
X13371428Y20525646D01*
X13371428Y20525646D02*
X13371428Y20982789D01*
X13371428Y20982789D02*
X13314285Y21097075D01*
X13314285Y21097075D02*
X13200000Y21154218D01*
X13200000Y21154218D02*
X12971428Y21154218D01*
X12971428Y21154218D02*
X12857142Y21097075D01*
X12857142Y21097075D02*
X12800000Y20982789D01*
X12800000Y20982789D02*
X12800000Y20868503D01*
X12800000Y20868503D02*
X13371428Y20754218D01*
X12400000Y21154218D02*
X12114286Y20354218D01*
X12114286Y20354218D02*
X11828571Y21154218D01*
X10514285Y20697075D02*
X9942857Y20697075D01*
X10628571Y20354218D02*
X10228571Y21554218D01*
X10228571Y21554218D02*
X9828571Y20354218D01*
%LPC*%
D12*
%TO.C,MK1*%
X14320000Y40500000D03*
%TD*%
D13*
%TO.C,H1*%
X15000000Y47500000D03*
%TD*%
D14*
%TO.C,J1*%
X3500000Y25500000D03*
D15*
X6040000Y25500000D03*
X8580000Y25500000D03*
X11120000Y25500000D03*
%TD*%
%LPD*%
M02*
