%TF.GenerationSoftware,KiCad,Pcbnew,10.0.6*%
%TF.CreationDate,2026-09-27T20:55:05+00:00*%
%TF.ProjectId,dbfob,6462666f-622e-46b6-9963-61645f706362,rev?*%
%TF.SameCoordinates,Original*%
%TF.FileFunction,Legend,Bot*%
%TF.FilePolarity,Positive*%
%FSLAX46Y46*%
G04 Gerber Fmt 4.6, Leading zero omitted, Abs format (unit mm)*
G04 Created by KiCad (PCBNEW 10.0.6) date 2026-09-27 20:55:05*
%MOMM*%
%LPD*%
G01*
G04 APERTURE LIST*
%ADD10C,0.150000*%
%ADD11C,0.180000*%
%ADD12C,0.800000*%
%ADD13C,3.200000*%
%ADD14R,1.700000X1.700000*%
%ADD15C,1.700000*%
G04 APERTURE END LIST*
D10*
X15857142Y42837705D02*
X15857142Y43637705D01*
X15857142Y43637705D02*
X15590476Y43066277D01*
X15590476Y43066277D02*
X15323809Y43637705D01*
X15323809Y43637705D02*
X15323809Y42837705D01*
X14942856Y42837705D02*
X14942856Y43637705D01*
X14104761Y42913896D02*
X14142857Y42875800D01*
X14142857Y42875800D02*
X14257142Y42837705D01*
X14257142Y42837705D02*
X14333333Y42837705D01*
X14333333Y42837705D02*
X14447619Y42875800D01*
X14447619Y42875800D02*
X14523809Y42951991D01*
X14523809Y42951991D02*
X14561904Y43028181D01*
X14561904Y43028181D02*
X14600000Y43180562D01*
X14600000Y43180562D02*
X14600000Y43294848D01*
X14600000Y43294848D02*
X14561904Y43447229D01*
X14561904Y43447229D02*
X14523809Y43523420D01*
X14523809Y43523420D02*
X14447619Y43599610D01*
X14447619Y43599610D02*
X14333333Y43637705D01*
X14333333Y43637705D02*
X14257142Y43637705D01*
X14257142Y43637705D02*
X14142857Y43599610D01*
X14142857Y43599610D02*
X14104761Y43561515D01*
X23876190Y4699610D02*
X23952380Y4737705D01*
X23952380Y4737705D02*
X24066666Y4737705D01*
X24066666Y4737705D02*
X24180952Y4699610D01*
X24180952Y4699610D02*
X24257142Y4623420D01*
X24257142Y4623420D02*
X24295237Y4547229D01*
X24295237Y4547229D02*
X24333333Y4394848D01*
X24333333Y4394848D02*
X24333333Y4280562D01*
X24333333Y4280562D02*
X24295237Y4128181D01*
X24295237Y4128181D02*
X24257142Y4051991D01*
X24257142Y4051991D02*
X24180952Y3975800D01*
X24180952Y3975800D02*
X24066666Y3937705D01*
X24066666Y3937705D02*
X23990475Y3937705D01*
X23990475Y3937705D02*
X23876190Y3975800D01*
X23876190Y3975800D02*
X23838094Y4013896D01*
X23838094Y4013896D02*
X23838094Y4280562D01*
X23838094Y4280562D02*
X23990475Y4280562D01*
X22885714Y4471039D02*
X23495237Y4242467D01*
X23495237Y4242467D02*
X22885714Y4013896D01*
X22504761Y4356753D02*
X21895238Y4356753D01*
X21895238Y4128181D02*
X22504761Y4128181D01*
X21400000Y4394848D02*
X21476190Y4432943D01*
X21476190Y4432943D02*
X21514285Y4471039D01*
X21514285Y4471039D02*
X21552381Y4547229D01*
X21552381Y4547229D02*
X21552381Y4585324D01*
X21552381Y4585324D02*
X21514285Y4661515D01*
X21514285Y4661515D02*
X21476190Y4699610D01*
X21476190Y4699610D02*
X21400000Y4737705D01*
X21400000Y4737705D02*
X21247619Y4737705D01*
X21247619Y4737705D02*
X21171428Y4699610D01*
X21171428Y4699610D02*
X21133333Y4661515D01*
X21133333Y4661515D02*
X21095238Y4585324D01*
X21095238Y4585324D02*
X21095238Y4547229D01*
X21095238Y4547229D02*
X21133333Y4471039D01*
X21133333Y4471039D02*
X21171428Y4432943D01*
X21171428Y4432943D02*
X21247619Y4394848D01*
X21247619Y4394848D02*
X21400000Y4394848D01*
X21400000Y4394848D02*
X21476190Y4356753D01*
X21476190Y4356753D02*
X21514285Y4318658D01*
X21514285Y4318658D02*
X21552381Y4242467D01*
X21552381Y4242467D02*
X21552381Y4090086D01*
X21552381Y4090086D02*
X21514285Y4013896D01*
X21514285Y4013896D02*
X21476190Y3975800D01*
X21476190Y3975800D02*
X21400000Y3937705D01*
X21400000Y3937705D02*
X21247619Y3937705D01*
X21247619Y3937705D02*
X21171428Y3975800D01*
X21171428Y3975800D02*
X21133333Y4013896D01*
X21133333Y4013896D02*
X21095238Y4090086D01*
X21095238Y4090086D02*
X21095238Y4242467D01*
X21095238Y4242467D02*
X21133333Y4318658D01*
X21133333Y4318658D02*
X21171428Y4356753D01*
X21171428Y4356753D02*
X21247619Y4394848D01*
X20828571Y4737705D02*
X20333333Y4737705D01*
X20333333Y4737705D02*
X20599999Y4432943D01*
X20599999Y4432943D02*
X20485714Y4432943D01*
X20485714Y4432943D02*
X20409523Y4394848D01*
X20409523Y4394848D02*
X20371428Y4356753D01*
X20371428Y4356753D02*
X20333333Y4280562D01*
X20333333Y4280562D02*
X20333333Y4090086D01*
X20333333Y4090086D02*
X20371428Y4013896D01*
X20371428Y4013896D02*
X20409523Y3975800D01*
X20409523Y3975800D02*
X20485714Y3937705D01*
X20485714Y3937705D02*
X20714285Y3937705D01*
X20714285Y3937705D02*
X20790476Y3975800D01*
X20790476Y3975800D02*
X20828571Y4013896D01*
X19228570Y4318658D02*
X19228570Y3937705D01*
X19495237Y4737705D02*
X19228570Y4318658D01*
X19228570Y4318658D02*
X18961904Y4737705D01*
X18085714Y4471039D02*
X18695237Y4242467D01*
X18695237Y4242467D02*
X18085714Y4013896D01*
X17704761Y4356753D02*
X17095238Y4356753D01*
X17095238Y4128181D02*
X17704761Y4128181D01*
X16676190Y3937705D02*
X16523809Y3937705D01*
X16523809Y3937705D02*
X16447619Y3975800D01*
X16447619Y3975800D02*
X16409523Y4013896D01*
X16409523Y4013896D02*
X16333333Y4128181D01*
X16333333Y4128181D02*
X16295238Y4280562D01*
X16295238Y4280562D02*
X16295238Y4585324D01*
X16295238Y4585324D02*
X16333333Y4661515D01*
X16333333Y4661515D02*
X16371428Y4699610D01*
X16371428Y4699610D02*
X16447619Y4737705D01*
X16447619Y4737705D02*
X16600000Y4737705D01*
X16600000Y4737705D02*
X16676190Y4699610D01*
X16676190Y4699610D02*
X16714285Y4661515D01*
X16714285Y4661515D02*
X16752381Y4585324D01*
X16752381Y4585324D02*
X16752381Y4394848D01*
X16752381Y4394848D02*
X16714285Y4318658D01*
X16714285Y4318658D02*
X16676190Y4280562D01*
X16676190Y4280562D02*
X16600000Y4242467D01*
X16600000Y4242467D02*
X16447619Y4242467D01*
X16447619Y4242467D02*
X16371428Y4280562D01*
X16371428Y4280562D02*
X16333333Y4318658D01*
X16333333Y4318658D02*
X16295238Y4394848D01*
X15799999Y4737705D02*
X15723809Y4737705D01*
X15723809Y4737705D02*
X15647618Y4699610D01*
X15647618Y4699610D02*
X15609523Y4661515D01*
X15609523Y4661515D02*
X15571428Y4585324D01*
X15571428Y4585324D02*
X15533333Y4432943D01*
X15533333Y4432943D02*
X15533333Y4242467D01*
X15533333Y4242467D02*
X15571428Y4090086D01*
X15571428Y4090086D02*
X15609523Y4013896D01*
X15609523Y4013896D02*
X15647618Y3975800D01*
X15647618Y3975800D02*
X15723809Y3937705D01*
X15723809Y3937705D02*
X15799999Y3937705D01*
X15799999Y3937705D02*
X15876190Y3975800D01*
X15876190Y3975800D02*
X15914285Y4013896D01*
X15914285Y4013896D02*
X15952380Y4090086D01*
X15952380Y4090086D02*
X15990476Y4242467D01*
X15990476Y4242467D02*
X15990476Y4432943D01*
X15990476Y4432943D02*
X15952380Y4585324D01*
X15952380Y4585324D02*
X15914285Y4661515D01*
X15914285Y4661515D02*
X15876190Y4699610D01*
X15876190Y4699610D02*
X15799999Y4737705D01*
X14428570Y4737705D02*
X14276189Y4737705D01*
X14276189Y4737705D02*
X14199999Y4699610D01*
X14199999Y4699610D02*
X14123808Y4623420D01*
X14123808Y4623420D02*
X14085713Y4471039D01*
X14085713Y4471039D02*
X14085713Y4204372D01*
X14085713Y4204372D02*
X14123808Y4051991D01*
X14123808Y4051991D02*
X14199999Y3975800D01*
X14199999Y3975800D02*
X14276189Y3937705D01*
X14276189Y3937705D02*
X14428570Y3937705D01*
X14428570Y3937705D02*
X14504761Y3975800D01*
X14504761Y3975800D02*
X14580951Y4051991D01*
X14580951Y4051991D02*
X14619047Y4204372D01*
X14619047Y4204372D02*
X14619047Y4471039D01*
X14619047Y4471039D02*
X14580951Y4623420D01*
X14580951Y4623420D02*
X14504761Y4699610D01*
X14504761Y4699610D02*
X14428570Y4737705D01*
X13133333Y4471039D02*
X13742856Y4242467D01*
X13742856Y4242467D02*
X13133333Y4013896D01*
X12752380Y4356753D02*
X12142857Y4356753D01*
X12142857Y4128181D02*
X12752380Y4128181D01*
X11723809Y3937705D02*
X11571428Y3937705D01*
X11571428Y3937705D02*
X11495238Y3975800D01*
X11495238Y3975800D02*
X11457142Y4013896D01*
X11457142Y4013896D02*
X11380952Y4128181D01*
X11380952Y4128181D02*
X11342857Y4280562D01*
X11342857Y4280562D02*
X11342857Y4585324D01*
X11342857Y4585324D02*
X11380952Y4661515D01*
X11380952Y4661515D02*
X11419047Y4699610D01*
X11419047Y4699610D02*
X11495238Y4737705D01*
X11495238Y4737705D02*
X11647619Y4737705D01*
X11647619Y4737705D02*
X11723809Y4699610D01*
X11723809Y4699610D02*
X11761904Y4661515D01*
X11761904Y4661515D02*
X11800000Y4585324D01*
X11800000Y4585324D02*
X11800000Y4394848D01*
X11800000Y4394848D02*
X11761904Y4318658D01*
X11761904Y4318658D02*
X11723809Y4280562D01*
X11723809Y4280562D02*
X11647619Y4242467D01*
X11647619Y4242467D02*
X11495238Y4242467D01*
X11495238Y4242467D02*
X11419047Y4280562D01*
X11419047Y4280562D02*
X11380952Y4318658D01*
X11380952Y4318658D02*
X11342857Y4394848D01*
X10657142Y4737705D02*
X10809523Y4737705D01*
X10809523Y4737705D02*
X10885714Y4699610D01*
X10885714Y4699610D02*
X10923809Y4661515D01*
X10923809Y4661515D02*
X10999999Y4547229D01*
X10999999Y4547229D02*
X11038095Y4394848D01*
X11038095Y4394848D02*
X11038095Y4090086D01*
X11038095Y4090086D02*
X10999999Y4013896D01*
X10999999Y4013896D02*
X10961904Y3975800D01*
X10961904Y3975800D02*
X10885714Y3937705D01*
X10885714Y3937705D02*
X10733333Y3937705D01*
X10733333Y3937705D02*
X10657142Y3975800D01*
X10657142Y3975800D02*
X10619047Y4013896D01*
X10619047Y4013896D02*
X10580952Y4090086D01*
X10580952Y4090086D02*
X10580952Y4280562D01*
X10580952Y4280562D02*
X10619047Y4356753D01*
X10619047Y4356753D02*
X10657142Y4394848D01*
X10657142Y4394848D02*
X10733333Y4432943D01*
X10733333Y4432943D02*
X10885714Y4432943D01*
X10885714Y4432943D02*
X10961904Y4394848D01*
X10961904Y4394848D02*
X10999999Y4356753D01*
X10999999Y4356753D02*
X11038095Y4280562D01*
X9171427Y3937705D02*
X9438094Y4318658D01*
X9628570Y3937705D02*
X9628570Y4737705D01*
X9628570Y4737705D02*
X9323808Y4737705D01*
X9323808Y4737705D02*
X9247618Y4699610D01*
X9247618Y4699610D02*
X9209523Y4661515D01*
X9209523Y4661515D02*
X9171427Y4585324D01*
X9171427Y4585324D02*
X9171427Y4471039D01*
X9171427Y4471039D02*
X9209523Y4394848D01*
X9209523Y4394848D02*
X9247618Y4356753D01*
X9247618Y4356753D02*
X9323808Y4318658D01*
X9323808Y4318658D02*
X9628570Y4318658D01*
X8828570Y4471039D02*
X8219047Y4242467D01*
X8219047Y4242467D02*
X8828570Y4013896D01*
X7838094Y4356753D02*
X7228571Y4356753D01*
X7228571Y4128181D02*
X7838094Y4128181D01*
X6809523Y3937705D02*
X6657142Y3937705D01*
X6657142Y3937705D02*
X6580952Y3975800D01*
X6580952Y3975800D02*
X6542856Y4013896D01*
X6542856Y4013896D02*
X6466666Y4128181D01*
X6466666Y4128181D02*
X6428571Y4280562D01*
X6428571Y4280562D02*
X6428571Y4585324D01*
X6428571Y4585324D02*
X6466666Y4661515D01*
X6466666Y4661515D02*
X6504761Y4699610D01*
X6504761Y4699610D02*
X6580952Y4737705D01*
X6580952Y4737705D02*
X6733333Y4737705D01*
X6733333Y4737705D02*
X6809523Y4699610D01*
X6809523Y4699610D02*
X6847618Y4661515D01*
X6847618Y4661515D02*
X6885714Y4585324D01*
X6885714Y4585324D02*
X6885714Y4394848D01*
X6885714Y4394848D02*
X6847618Y4318658D01*
X6847618Y4318658D02*
X6809523Y4280562D01*
X6809523Y4280562D02*
X6733333Y4242467D01*
X6733333Y4242467D02*
X6580952Y4242467D01*
X6580952Y4242467D02*
X6504761Y4280562D01*
X6504761Y4280562D02*
X6466666Y4318658D01*
X6466666Y4318658D02*
X6428571Y4394848D01*
X6161904Y4737705D02*
X5628570Y4737705D01*
X5628570Y4737705D02*
X5971428Y3937705D01*
X22466666Y2137705D02*
X22466666Y2937705D01*
X22466666Y2175800D02*
X22542857Y2137705D01*
X22542857Y2137705D02*
X22695238Y2137705D01*
X22695238Y2137705D02*
X22771428Y2175800D01*
X22771428Y2175800D02*
X22809523Y2213896D01*
X22809523Y2213896D02*
X22847619Y2290086D01*
X22847619Y2290086D02*
X22847619Y2518658D01*
X22847619Y2518658D02*
X22809523Y2594848D01*
X22809523Y2594848D02*
X22771428Y2632943D01*
X22771428Y2632943D02*
X22695238Y2671039D01*
X22695238Y2671039D02*
X22542857Y2671039D01*
X22542857Y2671039D02*
X22466666Y2632943D01*
X21819047Y2556753D02*
X21704761Y2518658D01*
X21704761Y2518658D02*
X21666666Y2480562D01*
X21666666Y2480562D02*
X21628570Y2404372D01*
X21628570Y2404372D02*
X21628570Y2290086D01*
X21628570Y2290086D02*
X21666666Y2213896D01*
X21666666Y2213896D02*
X21704761Y2175800D01*
X21704761Y2175800D02*
X21780951Y2137705D01*
X21780951Y2137705D02*
X22085713Y2137705D01*
X22085713Y2137705D02*
X22085713Y2937705D01*
X22085713Y2937705D02*
X21819047Y2937705D01*
X21819047Y2937705D02*
X21742856Y2899610D01*
X21742856Y2899610D02*
X21704761Y2861515D01*
X21704761Y2861515D02*
X21666666Y2785324D01*
X21666666Y2785324D02*
X21666666Y2709134D01*
X21666666Y2709134D02*
X21704761Y2632943D01*
X21704761Y2632943D02*
X21742856Y2594848D01*
X21742856Y2594848D02*
X21819047Y2556753D01*
X21819047Y2556753D02*
X22085713Y2556753D01*
X21323809Y2366277D02*
X20942856Y2366277D01*
X21399999Y2137705D02*
X21133332Y2937705D01*
X21133332Y2937705D02*
X20866666Y2137705D01*
X19647618Y2137705D02*
X19647618Y2556753D01*
X19647618Y2556753D02*
X19685713Y2632943D01*
X19685713Y2632943D02*
X19761904Y2671039D01*
X19761904Y2671039D02*
X19914285Y2671039D01*
X19914285Y2671039D02*
X19990475Y2632943D01*
X19647618Y2175800D02*
X19723809Y2137705D01*
X19723809Y2137705D02*
X19914285Y2137705D01*
X19914285Y2137705D02*
X19990475Y2175800D01*
X19990475Y2175800D02*
X20028571Y2251991D01*
X20028571Y2251991D02*
X20028571Y2328181D01*
X20028571Y2328181D02*
X19990475Y2404372D01*
X19990475Y2404372D02*
X19914285Y2442467D01*
X19914285Y2442467D02*
X19723809Y2442467D01*
X19723809Y2442467D02*
X19647618Y2480562D01*
X19380951Y2671039D02*
X19076189Y2671039D01*
X19266665Y2937705D02*
X19266665Y2251991D01*
X19266665Y2251991D02*
X19228570Y2175800D01*
X19228570Y2175800D02*
X19152380Y2137705D01*
X19152380Y2137705D02*
X19076189Y2137705D01*
X17895236Y2175800D02*
X17971427Y2137705D01*
X17971427Y2137705D02*
X18123808Y2137705D01*
X18123808Y2137705D02*
X18199998Y2175800D01*
X18199998Y2175800D02*
X18238094Y2251991D01*
X18238094Y2251991D02*
X18238094Y2556753D01*
X18238094Y2556753D02*
X18199998Y2632943D01*
X18199998Y2632943D02*
X18123808Y2671039D01*
X18123808Y2671039D02*
X17971427Y2671039D01*
X17971427Y2671039D02*
X17895236Y2632943D01*
X17895236Y2632943D02*
X17857141Y2556753D01*
X17857141Y2556753D02*
X17857141Y2480562D01*
X17857141Y2480562D02*
X18238094Y2404372D01*
X17171427Y2137705D02*
X17171427Y2556753D01*
X17171427Y2556753D02*
X17209522Y2632943D01*
X17209522Y2632943D02*
X17285713Y2671039D01*
X17285713Y2671039D02*
X17438094Y2671039D01*
X17438094Y2671039D02*
X17514284Y2632943D01*
X17171427Y2175800D02*
X17247618Y2137705D01*
X17247618Y2137705D02*
X17438094Y2137705D01*
X17438094Y2137705D02*
X17514284Y2175800D01*
X17514284Y2175800D02*
X17552380Y2251991D01*
X17552380Y2251991D02*
X17552380Y2328181D01*
X17552380Y2328181D02*
X17514284Y2404372D01*
X17514284Y2404372D02*
X17438094Y2442467D01*
X17438094Y2442467D02*
X17247618Y2442467D01*
X17247618Y2442467D02*
X17171427Y2480562D01*
X16790474Y2137705D02*
X16790474Y2671039D01*
X16790474Y2518658D02*
X16752379Y2594848D01*
X16752379Y2594848D02*
X16714284Y2632943D01*
X16714284Y2632943D02*
X16638093Y2671039D01*
X16638093Y2671039D02*
X16561903Y2671039D01*
X14619045Y2213896D02*
X14657141Y2175800D01*
X14657141Y2175800D02*
X14771426Y2137705D01*
X14771426Y2137705D02*
X14847617Y2137705D01*
X14847617Y2137705D02*
X14961903Y2175800D01*
X14961903Y2175800D02*
X15038093Y2251991D01*
X15038093Y2251991D02*
X15076188Y2328181D01*
X15076188Y2328181D02*
X15114284Y2480562D01*
X15114284Y2480562D02*
X15114284Y2594848D01*
X15114284Y2594848D02*
X15076188Y2747229D01*
X15076188Y2747229D02*
X15038093Y2823420D01*
X15038093Y2823420D02*
X14961903Y2899610D01*
X14961903Y2899610D02*
X14847617Y2937705D01*
X14847617Y2937705D02*
X14771426Y2937705D01*
X14771426Y2937705D02*
X14657141Y2899610D01*
X14657141Y2899610D02*
X14619045Y2861515D01*
X14276188Y2556753D02*
X14009522Y2556753D01*
X13895236Y2137705D02*
X14276188Y2137705D01*
X14276188Y2137705D02*
X14276188Y2937705D01*
X14276188Y2937705D02*
X13895236Y2937705D01*
X13095235Y2137705D02*
X13361902Y2518658D01*
X13552378Y2137705D02*
X13552378Y2937705D01*
X13552378Y2937705D02*
X13247616Y2937705D01*
X13247616Y2937705D02*
X13171426Y2899610D01*
X13171426Y2899610D02*
X13133331Y2861515D01*
X13133331Y2861515D02*
X13095235Y2785324D01*
X13095235Y2785324D02*
X13095235Y2671039D01*
X13095235Y2671039D02*
X13133331Y2594848D01*
X13133331Y2594848D02*
X13171426Y2556753D01*
X13171426Y2556753D02*
X13247616Y2518658D01*
X13247616Y2518658D02*
X13552378Y2518658D01*
X12752378Y2137705D02*
X12752378Y2937705D01*
X12752378Y2937705D02*
X12295235Y2137705D01*
X12295235Y2137705D02*
X12295235Y2937705D01*
X11914283Y2442467D02*
X11304760Y2442467D01*
X10771426Y2937705D02*
X10619045Y2937705D01*
X10619045Y2937705D02*
X10542855Y2899610D01*
X10542855Y2899610D02*
X10466664Y2823420D01*
X10466664Y2823420D02*
X10428569Y2671039D01*
X10428569Y2671039D02*
X10428569Y2404372D01*
X10428569Y2404372D02*
X10466664Y2251991D01*
X10466664Y2251991D02*
X10542855Y2175800D01*
X10542855Y2175800D02*
X10619045Y2137705D01*
X10619045Y2137705D02*
X10771426Y2137705D01*
X10771426Y2137705D02*
X10847617Y2175800D01*
X10847617Y2175800D02*
X10923807Y2251991D01*
X10923807Y2251991D02*
X10961903Y2404372D01*
X10961903Y2404372D02*
X10961903Y2671039D01*
X10961903Y2671039D02*
X10923807Y2823420D01*
X10923807Y2823420D02*
X10847617Y2899610D01*
X10847617Y2899610D02*
X10771426Y2937705D01*
X10085712Y2137705D02*
X10085712Y2937705D01*
X10085712Y2556753D02*
X9628569Y2556753D01*
X9628569Y2137705D02*
X9628569Y2937705D01*
X8866665Y2137705D02*
X9247617Y2137705D01*
X9247617Y2137705D02*
X9247617Y2937705D01*
X8599998Y2442467D02*
X7990475Y2442467D01*
X7609522Y2137705D02*
X7609522Y2937705D01*
X7609522Y2937705D02*
X7304760Y2937705D01*
X7304760Y2937705D02*
X7228570Y2899610D01*
X7228570Y2899610D02*
X7190475Y2861515D01*
X7190475Y2861515D02*
X7152379Y2785324D01*
X7152379Y2785324D02*
X7152379Y2671039D01*
X7152379Y2671039D02*
X7190475Y2594848D01*
X7190475Y2594848D02*
X7228570Y2556753D01*
X7228570Y2556753D02*
X7304760Y2518658D01*
X7304760Y2518658D02*
X7609522Y2518658D01*
X25561904Y28737705D02*
X25828571Y29118658D01*
X26019047Y28737705D02*
X26019047Y29537705D01*
X26019047Y29537705D02*
X25714285Y29537705D01*
X25714285Y29537705D02*
X25638095Y29499610D01*
X25638095Y29499610D02*
X25600000Y29461515D01*
X25600000Y29461515D02*
X25561904Y29385324D01*
X25561904Y29385324D02*
X25561904Y29271039D01*
X25561904Y29271039D02*
X25600000Y29194848D01*
X25600000Y29194848D02*
X25638095Y29156753D01*
X25638095Y29156753D02*
X25714285Y29118658D01*
X25714285Y29118658D02*
X26019047Y29118658D01*
X25219047Y29156753D02*
X24952381Y29156753D01*
X24838095Y28737705D02*
X25219047Y28737705D01*
X25219047Y28737705D02*
X25219047Y29537705D01*
X25219047Y29537705D02*
X24838095Y29537705D01*
X24495237Y28737705D02*
X24495237Y29537705D01*
X24495237Y29537705D02*
X24228571Y28966277D01*
X24228571Y28966277D02*
X23961904Y29537705D01*
X23961904Y29537705D02*
X23961904Y28737705D01*
X23428570Y29537705D02*
X23276189Y29537705D01*
X23276189Y29537705D02*
X23199999Y29499610D01*
X23199999Y29499610D02*
X23123808Y29423420D01*
X23123808Y29423420D02*
X23085713Y29271039D01*
X23085713Y29271039D02*
X23085713Y29004372D01*
X23085713Y29004372D02*
X23123808Y28851991D01*
X23123808Y28851991D02*
X23199999Y28775800D01*
X23199999Y28775800D02*
X23276189Y28737705D01*
X23276189Y28737705D02*
X23428570Y28737705D01*
X23428570Y28737705D02*
X23504761Y28775800D01*
X23504761Y28775800D02*
X23580951Y28851991D01*
X23580951Y28851991D02*
X23619047Y29004372D01*
X23619047Y29004372D02*
X23619047Y29271039D01*
X23619047Y29271039D02*
X23580951Y29423420D01*
X23580951Y29423420D02*
X23504761Y29499610D01*
X23504761Y29499610D02*
X23428570Y29537705D01*
X22857142Y29537705D02*
X22590475Y28737705D01*
X22590475Y28737705D02*
X22323809Y29537705D01*
X22057142Y29156753D02*
X21790476Y29156753D01*
X21676190Y28737705D02*
X22057142Y28737705D01*
X22057142Y28737705D02*
X22057142Y29537705D01*
X22057142Y29537705D02*
X21676190Y29537705D01*
X20266665Y28813896D02*
X20304761Y28775800D01*
X20304761Y28775800D02*
X20419046Y28737705D01*
X20419046Y28737705D02*
X20495237Y28737705D01*
X20495237Y28737705D02*
X20609523Y28775800D01*
X20609523Y28775800D02*
X20685713Y28851991D01*
X20685713Y28851991D02*
X20723808Y28928181D01*
X20723808Y28928181D02*
X20761904Y29080562D01*
X20761904Y29080562D02*
X20761904Y29194848D01*
X20761904Y29194848D02*
X20723808Y29347229D01*
X20723808Y29347229D02*
X20685713Y29423420D01*
X20685713Y29423420D02*
X20609523Y29499610D01*
X20609523Y29499610D02*
X20495237Y29537705D01*
X20495237Y29537705D02*
X20419046Y29537705D01*
X20419046Y29537705D02*
X20304761Y29499610D01*
X20304761Y29499610D02*
X20266665Y29461515D01*
X19923808Y29156753D02*
X19657142Y29156753D01*
X19542856Y28737705D02*
X19923808Y28737705D01*
X19923808Y28737705D02*
X19923808Y29537705D01*
X19923808Y29537705D02*
X19542856Y29537705D01*
X18819046Y28737705D02*
X19199998Y28737705D01*
X19199998Y28737705D02*
X19199998Y29537705D01*
X18171427Y28737705D02*
X18552379Y28737705D01*
X18552379Y28737705D02*
X18552379Y29537705D01*
X17409522Y29537705D02*
X16952379Y29537705D01*
X17180951Y28737705D02*
X17180951Y29537705D01*
X16533331Y29537705D02*
X16380950Y29537705D01*
X16380950Y29537705D02*
X16304760Y29499610D01*
X16304760Y29499610D02*
X16228569Y29423420D01*
X16228569Y29423420D02*
X16190474Y29271039D01*
X16190474Y29271039D02*
X16190474Y29004372D01*
X16190474Y29004372D02*
X16228569Y28851991D01*
X16228569Y28851991D02*
X16304760Y28775800D01*
X16304760Y28775800D02*
X16380950Y28737705D01*
X16380950Y28737705D02*
X16533331Y28737705D01*
X16533331Y28737705D02*
X16609522Y28775800D01*
X16609522Y28775800D02*
X16685712Y28851991D01*
X16685712Y28851991D02*
X16723808Y29004372D01*
X16723808Y29004372D02*
X16723808Y29271039D01*
X16723808Y29271039D02*
X16685712Y29423420D01*
X16685712Y29423420D02*
X16609522Y29499610D01*
X16609522Y29499610D02*
X16533331Y29537705D01*
X15238093Y28737705D02*
X15238093Y29537705D01*
X15238093Y29537705D02*
X14933331Y29537705D01*
X14933331Y29537705D02*
X14857141Y29499610D01*
X14857141Y29499610D02*
X14819046Y29461515D01*
X14819046Y29461515D02*
X14780950Y29385324D01*
X14780950Y29385324D02*
X14780950Y29271039D01*
X14780950Y29271039D02*
X14819046Y29194848D01*
X14819046Y29194848D02*
X14857141Y29156753D01*
X14857141Y29156753D02*
X14933331Y29118658D01*
X14933331Y29118658D02*
X15238093Y29118658D01*
X13980950Y28737705D02*
X14247617Y29118658D01*
X14438093Y28737705D02*
X14438093Y29537705D01*
X14438093Y29537705D02*
X14133331Y29537705D01*
X14133331Y29537705D02*
X14057141Y29499610D01*
X14057141Y29499610D02*
X14019046Y29461515D01*
X14019046Y29461515D02*
X13980950Y29385324D01*
X13980950Y29385324D02*
X13980950Y29271039D01*
X13980950Y29271039D02*
X14019046Y29194848D01*
X14019046Y29194848D02*
X14057141Y29156753D01*
X14057141Y29156753D02*
X14133331Y29118658D01*
X14133331Y29118658D02*
X14438093Y29118658D01*
X13485712Y29537705D02*
X13333331Y29537705D01*
X13333331Y29537705D02*
X13257141Y29499610D01*
X13257141Y29499610D02*
X13180950Y29423420D01*
X13180950Y29423420D02*
X13142855Y29271039D01*
X13142855Y29271039D02*
X13142855Y29004372D01*
X13142855Y29004372D02*
X13180950Y28851991D01*
X13180950Y28851991D02*
X13257141Y28775800D01*
X13257141Y28775800D02*
X13333331Y28737705D01*
X13333331Y28737705D02*
X13485712Y28737705D01*
X13485712Y28737705D02*
X13561903Y28775800D01*
X13561903Y28775800D02*
X13638093Y28851991D01*
X13638093Y28851991D02*
X13676189Y29004372D01*
X13676189Y29004372D02*
X13676189Y29271039D01*
X13676189Y29271039D02*
X13638093Y29423420D01*
X13638093Y29423420D02*
X13561903Y29499610D01*
X13561903Y29499610D02*
X13485712Y29537705D01*
X12380951Y29499610D02*
X12457141Y29537705D01*
X12457141Y29537705D02*
X12571427Y29537705D01*
X12571427Y29537705D02*
X12685713Y29499610D01*
X12685713Y29499610D02*
X12761903Y29423420D01*
X12761903Y29423420D02*
X12799998Y29347229D01*
X12799998Y29347229D02*
X12838094Y29194848D01*
X12838094Y29194848D02*
X12838094Y29080562D01*
X12838094Y29080562D02*
X12799998Y28928181D01*
X12799998Y28928181D02*
X12761903Y28851991D01*
X12761903Y28851991D02*
X12685713Y28775800D01*
X12685713Y28775800D02*
X12571427Y28737705D01*
X12571427Y28737705D02*
X12495236Y28737705D01*
X12495236Y28737705D02*
X12380951Y28775800D01*
X12380951Y28775800D02*
X12342855Y28813896D01*
X12342855Y28813896D02*
X12342855Y29080562D01*
X12342855Y29080562D02*
X12495236Y29080562D01*
X11542855Y28737705D02*
X11809522Y29118658D01*
X11999998Y28737705D02*
X11999998Y29537705D01*
X11999998Y29537705D02*
X11695236Y29537705D01*
X11695236Y29537705D02*
X11619046Y29499610D01*
X11619046Y29499610D02*
X11580951Y29461515D01*
X11580951Y29461515D02*
X11542855Y29385324D01*
X11542855Y29385324D02*
X11542855Y29271039D01*
X11542855Y29271039D02*
X11580951Y29194848D01*
X11580951Y29194848D02*
X11619046Y29156753D01*
X11619046Y29156753D02*
X11695236Y29118658D01*
X11695236Y29118658D02*
X11999998Y29118658D01*
X11238094Y28966277D02*
X10857141Y28966277D01*
X11314284Y28737705D02*
X11047617Y29537705D01*
X11047617Y29537705D02*
X10780951Y28737705D01*
X10514284Y28737705D02*
X10514284Y29537705D01*
X10514284Y29537705D02*
X10247618Y28966277D01*
X10247618Y28966277D02*
X9980951Y29537705D01*
X9980951Y29537705D02*
X9980951Y28737705D01*
X21128572Y18534300D02*
X21042858Y18491443D01*
X21042858Y18491443D02*
X20871429Y18491443D01*
X20871429Y18491443D02*
X20785715Y18534300D01*
X20785715Y18534300D02*
X20742858Y18620015D01*
X20742858Y18620015D02*
X20742858Y18662872D01*
X20742858Y18662872D02*
X20785715Y18748586D01*
X20785715Y18748586D02*
X20871429Y18791443D01*
X20871429Y18791443D02*
X21000001Y18791443D01*
X21000001Y18791443D02*
X21085715Y18834300D01*
X21085715Y18834300D02*
X21128572Y18920015D01*
X21128572Y18920015D02*
X21128572Y18962872D01*
X21128572Y18962872D02*
X21085715Y19048586D01*
X21085715Y19048586D02*
X21000001Y19091443D01*
X21000001Y19091443D02*
X20871429Y19091443D01*
X20871429Y19091443D02*
X20785715Y19048586D01*
X20485715Y19091443D02*
X20142858Y19091443D01*
X20357144Y19391443D02*
X20357144Y18620015D01*
X20357144Y18620015D02*
X20314287Y18534300D01*
X20314287Y18534300D02*
X20228572Y18491443D01*
X20228572Y18491443D02*
X20142858Y18491443D01*
X19500001Y18534300D02*
X19585715Y18491443D01*
X19585715Y18491443D02*
X19757144Y18491443D01*
X19757144Y18491443D02*
X19842858Y18534300D01*
X19842858Y18534300D02*
X19885715Y18620015D01*
X19885715Y18620015D02*
X19885715Y18962872D01*
X19885715Y18962872D02*
X19842858Y19048586D01*
X19842858Y19048586D02*
X19757144Y19091443D01*
X19757144Y19091443D02*
X19585715Y19091443D01*
X19585715Y19091443D02*
X19500001Y19048586D01*
X19500001Y19048586D02*
X19457144Y18962872D01*
X19457144Y18962872D02*
X19457144Y18877158D01*
X19457144Y18877158D02*
X19885715Y18791443D01*
X18685715Y18491443D02*
X18685715Y18962872D01*
X18685715Y18962872D02*
X18728572Y19048586D01*
X18728572Y19048586D02*
X18814286Y19091443D01*
X18814286Y19091443D02*
X18985715Y19091443D01*
X18985715Y19091443D02*
X19071429Y19048586D01*
X18685715Y18534300D02*
X18771429Y18491443D01*
X18771429Y18491443D02*
X18985715Y18491443D01*
X18985715Y18491443D02*
X19071429Y18534300D01*
X19071429Y18534300D02*
X19114286Y18620015D01*
X19114286Y18620015D02*
X19114286Y18705729D01*
X19114286Y18705729D02*
X19071429Y18791443D01*
X19071429Y18791443D02*
X18985715Y18834300D01*
X18985715Y18834300D02*
X18771429Y18834300D01*
X18771429Y18834300D02*
X18685715Y18877158D01*
X17871429Y18491443D02*
X17871429Y19391443D01*
X17871429Y18534300D02*
X17957143Y18491443D01*
X17957143Y18491443D02*
X18128571Y18491443D01*
X18128571Y18491443D02*
X18214286Y18534300D01*
X18214286Y18534300D02*
X18257143Y18577158D01*
X18257143Y18577158D02*
X18300000Y18662872D01*
X18300000Y18662872D02*
X18300000Y18920015D01*
X18300000Y18920015D02*
X18257143Y19005729D01*
X18257143Y19005729D02*
X18214286Y19048586D01*
X18214286Y19048586D02*
X18128571Y19091443D01*
X18128571Y19091443D02*
X17957143Y19091443D01*
X17957143Y19091443D02*
X17871429Y19048586D01*
X17528571Y19091443D02*
X17314285Y18491443D01*
X17100000Y19091443D02*
X17314285Y18491443D01*
X17314285Y18491443D02*
X17400000Y18277158D01*
X17400000Y18277158D02*
X17442857Y18234300D01*
X17442857Y18234300D02*
X17528571Y18191443D01*
X16071429Y18962872D02*
X15385715Y18962872D01*
X15385715Y18705729D02*
X16071429Y18705729D01*
X14271429Y18491443D02*
X14271429Y19391443D01*
X14271429Y19048586D02*
X14185715Y19091443D01*
X14185715Y19091443D02*
X14014286Y19091443D01*
X14014286Y19091443D02*
X13928572Y19048586D01*
X13928572Y19048586D02*
X13885715Y19005729D01*
X13885715Y19005729D02*
X13842857Y18920015D01*
X13842857Y18920015D02*
X13842857Y18662872D01*
X13842857Y18662872D02*
X13885715Y18577158D01*
X13885715Y18577158D02*
X13928572Y18534300D01*
X13928572Y18534300D02*
X14014286Y18491443D01*
X14014286Y18491443D02*
X14185715Y18491443D01*
X14185715Y18491443D02*
X14271429Y18534300D01*
X13071429Y18491443D02*
X13071429Y18962872D01*
X13071429Y18962872D02*
X13114286Y19048586D01*
X13114286Y19048586D02*
X13200000Y19091443D01*
X13200000Y19091443D02*
X13371429Y19091443D01*
X13371429Y19091443D02*
X13457143Y19048586D01*
X13071429Y18534300D02*
X13157143Y18491443D01*
X13157143Y18491443D02*
X13371429Y18491443D01*
X13371429Y18491443D02*
X13457143Y18534300D01*
X13457143Y18534300D02*
X13500000Y18620015D01*
X13500000Y18620015D02*
X13500000Y18705729D01*
X13500000Y18705729D02*
X13457143Y18791443D01*
X13457143Y18791443D02*
X13371429Y18834300D01*
X13371429Y18834300D02*
X13157143Y18834300D01*
X13157143Y18834300D02*
X13071429Y18877158D01*
X12642857Y18491443D02*
X12642857Y19091443D01*
X12642857Y18920015D02*
X12600000Y19005729D01*
X12600000Y19005729D02*
X12557143Y19048586D01*
X12557143Y19048586D02*
X12471428Y19091443D01*
X12471428Y19091443D02*
X12385714Y19091443D01*
X11742857Y18534300D02*
X11828571Y18491443D01*
X11828571Y18491443D02*
X12000000Y18491443D01*
X12000000Y18491443D02*
X12085714Y18534300D01*
X12085714Y18534300D02*
X12128571Y18620015D01*
X12128571Y18620015D02*
X12128571Y18962872D01*
X12128571Y18962872D02*
X12085714Y19048586D01*
X12085714Y19048586D02*
X12000000Y19091443D01*
X12000000Y19091443D02*
X11828571Y19091443D01*
X11828571Y19091443D02*
X11742857Y19048586D01*
X11742857Y19048586D02*
X11700000Y18962872D01*
X11700000Y18962872D02*
X11700000Y18877158D01*
X11700000Y18877158D02*
X12128571Y18791443D01*
X10285714Y18534300D02*
X10371428Y18491443D01*
X10371428Y18491443D02*
X10542857Y18491443D01*
X10542857Y18491443D02*
X10628571Y18534300D01*
X10628571Y18534300D02*
X10671428Y18620015D01*
X10671428Y18620015D02*
X10671428Y18962872D01*
X10671428Y18962872D02*
X10628571Y19048586D01*
X10628571Y19048586D02*
X10542857Y19091443D01*
X10542857Y19091443D02*
X10371428Y19091443D01*
X10371428Y19091443D02*
X10285714Y19048586D01*
X10285714Y19048586D02*
X10242857Y18962872D01*
X10242857Y18962872D02*
X10242857Y18877158D01*
X10242857Y18877158D02*
X10671428Y18791443D01*
X9471428Y18491443D02*
X9471428Y18962872D01*
X9471428Y18962872D02*
X9514285Y19048586D01*
X9514285Y19048586D02*
X9599999Y19091443D01*
X9599999Y19091443D02*
X9771428Y19091443D01*
X9771428Y19091443D02*
X9857142Y19048586D01*
X9471428Y18534300D02*
X9557142Y18491443D01*
X9557142Y18491443D02*
X9771428Y18491443D01*
X9771428Y18491443D02*
X9857142Y18534300D01*
X9857142Y18534300D02*
X9899999Y18620015D01*
X9899999Y18620015D02*
X9899999Y18705729D01*
X9899999Y18705729D02*
X9857142Y18791443D01*
X9857142Y18791443D02*
X9771428Y18834300D01*
X9771428Y18834300D02*
X9557142Y18834300D01*
X9557142Y18834300D02*
X9471428Y18877158D01*
X9042856Y18491443D02*
X9042856Y19091443D01*
X9042856Y18920015D02*
X8999999Y19005729D01*
X8999999Y19005729D02*
X8957142Y19048586D01*
X8957142Y19048586D02*
X8871427Y19091443D01*
X8871427Y19091443D02*
X8785713Y19091443D01*
X22821428Y16891443D02*
X22821428Y17791443D01*
X22821428Y17448586D02*
X22735714Y17491443D01*
X22735714Y17491443D02*
X22564285Y17491443D01*
X22564285Y17491443D02*
X22478571Y17448586D01*
X22478571Y17448586D02*
X22435714Y17405729D01*
X22435714Y17405729D02*
X22392856Y17320015D01*
X22392856Y17320015D02*
X22392856Y17062872D01*
X22392856Y17062872D02*
X22435714Y16977158D01*
X22435714Y16977158D02*
X22478571Y16934300D01*
X22478571Y16934300D02*
X22564285Y16891443D01*
X22564285Y16891443D02*
X22735714Y16891443D01*
X22735714Y16891443D02*
X22821428Y16934300D01*
X21878570Y16891443D02*
X21964285Y16934300D01*
X21964285Y16934300D02*
X22007142Y17020015D01*
X22007142Y17020015D02*
X22007142Y17791443D01*
X21535713Y16891443D02*
X21535713Y17491443D01*
X21535713Y17791443D02*
X21578570Y17748586D01*
X21578570Y17748586D02*
X21535713Y17705729D01*
X21535713Y17705729D02*
X21492856Y17748586D01*
X21492856Y17748586D02*
X21535713Y17791443D01*
X21535713Y17791443D02*
X21535713Y17705729D01*
X21107142Y17491443D02*
X21107142Y16891443D01*
X21107142Y17405729D02*
X21064285Y17448586D01*
X21064285Y17448586D02*
X20978570Y17491443D01*
X20978570Y17491443D02*
X20849999Y17491443D01*
X20849999Y17491443D02*
X20764285Y17448586D01*
X20764285Y17448586D02*
X20721428Y17362872D01*
X20721428Y17362872D02*
X20721428Y16891443D01*
X20292856Y16891443D02*
X20292856Y17791443D01*
X20207142Y17234300D02*
X19949999Y16891443D01*
X19949999Y17491443D02*
X20292856Y17148586D01*
X18878571Y17362872D02*
X18192857Y17362872D01*
X18192857Y17105729D02*
X18878571Y17105729D01*
X17078571Y17491443D02*
X17078571Y16591443D01*
X17078571Y17448586D02*
X16992857Y17491443D01*
X16992857Y17491443D02*
X16821428Y17491443D01*
X16821428Y17491443D02*
X16735714Y17448586D01*
X16735714Y17448586D02*
X16692857Y17405729D01*
X16692857Y17405729D02*
X16649999Y17320015D01*
X16649999Y17320015D02*
X16649999Y17062872D01*
X16649999Y17062872D02*
X16692857Y16977158D01*
X16692857Y16977158D02*
X16735714Y16934300D01*
X16735714Y16934300D02*
X16821428Y16891443D01*
X16821428Y16891443D02*
X16992857Y16891443D01*
X16992857Y16891443D02*
X17078571Y16934300D01*
X16135713Y16891443D02*
X16221428Y16934300D01*
X16221428Y16934300D02*
X16264285Y17020015D01*
X16264285Y17020015D02*
X16264285Y17791443D01*
X15407142Y17491443D02*
X15407142Y16891443D01*
X15792856Y17491443D02*
X15792856Y17020015D01*
X15792856Y17020015D02*
X15749999Y16934300D01*
X15749999Y16934300D02*
X15664284Y16891443D01*
X15664284Y16891443D02*
X15535713Y16891443D01*
X15535713Y16891443D02*
X15449999Y16934300D01*
X15449999Y16934300D02*
X15407142Y16977158D01*
X14592856Y17491443D02*
X14592856Y16762872D01*
X14592856Y16762872D02*
X14635713Y16677158D01*
X14635713Y16677158D02*
X14678570Y16634300D01*
X14678570Y16634300D02*
X14764284Y16591443D01*
X14764284Y16591443D02*
X14892856Y16591443D01*
X14892856Y16591443D02*
X14978570Y16634300D01*
X14592856Y16934300D02*
X14678570Y16891443D01*
X14678570Y16891443D02*
X14849998Y16891443D01*
X14849998Y16891443D02*
X14935713Y16934300D01*
X14935713Y16934300D02*
X14978570Y16977158D01*
X14978570Y16977158D02*
X15021427Y17062872D01*
X15021427Y17062872D02*
X15021427Y17320015D01*
X15021427Y17320015D02*
X14978570Y17405729D01*
X14978570Y17405729D02*
X14935713Y17448586D01*
X14935713Y17448586D02*
X14849998Y17491443D01*
X14849998Y17491443D02*
X14678570Y17491443D01*
X14678570Y17491443D02*
X14592856Y17448586D01*
X14207141Y16934300D02*
X14121427Y16891443D01*
X14121427Y16891443D02*
X13949998Y16891443D01*
X13949998Y16891443D02*
X13864284Y16934300D01*
X13864284Y16934300D02*
X13821427Y17020015D01*
X13821427Y17020015D02*
X13821427Y17062872D01*
X13821427Y17062872D02*
X13864284Y17148586D01*
X13864284Y17148586D02*
X13949998Y17191443D01*
X13949998Y17191443D02*
X14078570Y17191443D01*
X14078570Y17191443D02*
X14164284Y17234300D01*
X14164284Y17234300D02*
X14207141Y17320015D01*
X14207141Y17320015D02*
X14207141Y17362872D01*
X14207141Y17362872D02*
X14164284Y17448586D01*
X14164284Y17448586D02*
X14078570Y17491443D01*
X14078570Y17491443D02*
X13949998Y17491443D01*
X13949998Y17491443D02*
X13864284Y17448586D01*
X12749999Y16891443D02*
X12749999Y17791443D01*
X12021428Y17362872D02*
X12321428Y17362872D01*
X12321428Y16891443D02*
X12321428Y17791443D01*
X12321428Y17791443D02*
X11892856Y17791443D01*
X10392856Y16891443D02*
X10907142Y16891443D01*
X10649999Y16891443D02*
X10649999Y17791443D01*
X10649999Y17791443D02*
X10735713Y17662872D01*
X10735713Y17662872D02*
X10821428Y17577158D01*
X10821428Y17577158D02*
X10907142Y17534300D01*
X10049999Y17705729D02*
X10007142Y17748586D01*
X10007142Y17748586D02*
X9921428Y17791443D01*
X9921428Y17791443D02*
X9707142Y17791443D01*
X9707142Y17791443D02*
X9621428Y17748586D01*
X9621428Y17748586D02*
X9578570Y17705729D01*
X9578570Y17705729D02*
X9535713Y17620015D01*
X9535713Y17620015D02*
X9535713Y17534300D01*
X9535713Y17534300D02*
X9578570Y17405729D01*
X9578570Y17405729D02*
X10092856Y16891443D01*
X10092856Y16891443D02*
X9535713Y16891443D01*
X8078571Y16891443D02*
X8078571Y17791443D01*
X8078571Y16934300D02*
X8164285Y16891443D01*
X8164285Y16891443D02*
X8335713Y16891443D01*
X8335713Y16891443D02*
X8421428Y16934300D01*
X8421428Y16934300D02*
X8464285Y16977158D01*
X8464285Y16977158D02*
X8507142Y17062872D01*
X8507142Y17062872D02*
X8507142Y17320015D01*
X8507142Y17320015D02*
X8464285Y17405729D01*
X8464285Y17405729D02*
X8421428Y17448586D01*
X8421428Y17448586D02*
X8335713Y17491443D01*
X8335713Y17491443D02*
X8164285Y17491443D01*
X8164285Y17491443D02*
X8078571Y17448586D01*
X7349999Y17362872D02*
X7221427Y17320015D01*
X7221427Y17320015D02*
X7178570Y17277158D01*
X7178570Y17277158D02*
X7135713Y17191443D01*
X7135713Y17191443D02*
X7135713Y17062872D01*
X7135713Y17062872D02*
X7178570Y16977158D01*
X7178570Y16977158D02*
X7221427Y16934300D01*
X7221427Y16934300D02*
X7307142Y16891443D01*
X7307142Y16891443D02*
X7649999Y16891443D01*
X7649999Y16891443D02*
X7649999Y17791443D01*
X7649999Y17791443D02*
X7349999Y17791443D01*
X7349999Y17791443D02*
X7264285Y17748586D01*
X7264285Y17748586D02*
X7221427Y17705729D01*
X7221427Y17705729D02*
X7178570Y17620015D01*
X7178570Y17620015D02*
X7178570Y17534300D01*
X7178570Y17534300D02*
X7221427Y17448586D01*
X7221427Y17448586D02*
X7264285Y17405729D01*
X7264285Y17405729D02*
X7349999Y17362872D01*
X7349999Y17362872D02*
X7649999Y17362872D01*
D11*
X19485713Y20354218D02*
X19485713Y21554218D01*
X19485713Y20411360D02*
X19599998Y20354218D01*
X19599998Y20354218D02*
X19828570Y20354218D01*
X19828570Y20354218D02*
X19942855Y20411360D01*
X19942855Y20411360D02*
X19999998Y20468503D01*
X19999998Y20468503D02*
X20057141Y20582789D01*
X20057141Y20582789D02*
X20057141Y20925646D01*
X20057141Y20925646D02*
X19999998Y21039932D01*
X19999998Y21039932D02*
X19942855Y21097075D01*
X19942855Y21097075D02*
X19828570Y21154218D01*
X19828570Y21154218D02*
X19599998Y21154218D01*
X19599998Y21154218D02*
X19485713Y21097075D01*
X18914284Y20354218D02*
X18914284Y21554218D01*
X18914284Y21097075D02*
X18799999Y21154218D01*
X18799999Y21154218D02*
X18571427Y21154218D01*
X18571427Y21154218D02*
X18457141Y21097075D01*
X18457141Y21097075D02*
X18399999Y21039932D01*
X18399999Y21039932D02*
X18342856Y20925646D01*
X18342856Y20925646D02*
X18342856Y20582789D01*
X18342856Y20582789D02*
X18399999Y20468503D01*
X18399999Y20468503D02*
X18457141Y20411360D01*
X18457141Y20411360D02*
X18571427Y20354218D01*
X18571427Y20354218D02*
X18799999Y20354218D01*
X18799999Y20354218D02*
X18914284Y20411360D01*
X17999999Y21154218D02*
X17542856Y21154218D01*
X17828570Y20354218D02*
X17828570Y21382789D01*
X17828570Y21382789D02*
X17771427Y21497075D01*
X17771427Y21497075D02*
X17657142Y21554218D01*
X17657142Y21554218D02*
X17542856Y21554218D01*
X16971428Y20354218D02*
X17085713Y20411360D01*
X17085713Y20411360D02*
X17142856Y20468503D01*
X17142856Y20468503D02*
X17199999Y20582789D01*
X17199999Y20582789D02*
X17199999Y20925646D01*
X17199999Y20925646D02*
X17142856Y21039932D01*
X17142856Y21039932D02*
X17085713Y21097075D01*
X17085713Y21097075D02*
X16971428Y21154218D01*
X16971428Y21154218D02*
X16799999Y21154218D01*
X16799999Y21154218D02*
X16685713Y21097075D01*
X16685713Y21097075D02*
X16628571Y21039932D01*
X16628571Y21039932D02*
X16571428Y20925646D01*
X16571428Y20925646D02*
X16571428Y20582789D01*
X16571428Y20582789D02*
X16628571Y20468503D01*
X16628571Y20468503D02*
X16685713Y20411360D01*
X16685713Y20411360D02*
X16799999Y20354218D01*
X16799999Y20354218D02*
X16971428Y20354218D01*
X16057142Y20354218D02*
X16057142Y21554218D01*
X16057142Y21097075D02*
X15942857Y21154218D01*
X15942857Y21154218D02*
X15714285Y21154218D01*
X15714285Y21154218D02*
X15599999Y21097075D01*
X15599999Y21097075D02*
X15542857Y21039932D01*
X15542857Y21039932D02*
X15485714Y20925646D01*
X15485714Y20925646D02*
X15485714Y20582789D01*
X15485714Y20582789D02*
X15542857Y20468503D01*
X15542857Y20468503D02*
X15599999Y20411360D01*
X15599999Y20411360D02*
X15714285Y20354218D01*
X15714285Y20354218D02*
X15942857Y20354218D01*
X15942857Y20354218D02*
X16057142Y20411360D01*
X14057142Y20354218D02*
X14057142Y21154218D01*
X14057142Y20925646D02*
X13999999Y21039932D01*
X13999999Y21039932D02*
X13942857Y21097075D01*
X13942857Y21097075D02*
X13828571Y21154218D01*
X13828571Y21154218D02*
X13714285Y21154218D01*
X12857142Y20411360D02*
X12971428Y20354218D01*
X12971428Y20354218D02*
X13200000Y20354218D01*
X13200000Y20354218D02*
X13314285Y20411360D01*
X13314285Y20411360D02*
X13371428Y20525646D01*
X13371428Y20525646D02*
X13371428Y20982789D01*
X13371428Y20982789D02*
X13314285Y21097075D01*
X13314285Y21097075D02*
X13200000Y21154218D01*
X13200000Y21154218D02*
X12971428Y21154218D01*
X12971428Y21154218D02*
X12857142Y21097075D01*
X12857142Y21097075D02*
X12800000Y20982789D01*
X12800000Y20982789D02*
X12800000Y20868503D01*
X12800000Y20868503D02*
X13371428Y20754218D01*
X12400000Y21154218D02*
X12114286Y20354218D01*
X12114286Y20354218D02*
X11828571Y21154218D01*
X10514285Y20697075D02*
X9942857Y20697075D01*
X10628571Y20354218D02*
X10228571Y21554218D01*
X10228571Y21554218D02*
X9828571Y20354218D01*
%LPC*%
D12*
%TO.C,MK1*%
X14320000Y40500000D03*
%TD*%
D13*
%TO.C,H1*%
X15000000Y47500000D03*
%TD*%
D14*
%TO.C,J1*%
X3500000Y25500000D03*
D15*
X6040000Y25500000D03*
X8580000Y25500000D03*
X11120000Y25500000D03*
%TD*%
%LPD*%
M02*
