%TF.GenerationSoftware,KiCad,Pcbnew,10.0.6*%
%TF.CreationDate,2026-09-27T19:28:55+00:00*%
%TF.ProjectId,dbfob,6462666f-622e-46b6-9963-61645f706362,rev?*%
%TF.SameCoordinates,Original*%
%TF.FileFunction,Legend,Top*%
%TF.FilePolarity,Positive*%
%FSLAX46Y46*%
G04 Gerber Fmt 4.6, Leading zero omitted, Abs format (unit mm)*
G04 Created by KiCad (PCBNEW 10.0.6) date 2026-09-27 19:28:55*
%MOMM*%
%LPD*%
G01*
G04 APERTURE LIST*
G04 Aperture macros list*
%AMRoundRect*
0 Rectangle with rounded corners*
0 $1 Rounding radius*
0 $2 $3 $4 $5 $6 $7 $8 $9 X,Y pos of 4 corners*
0 Add a 4 corners polygon primitive as box body*
4,1,4,$2,$3,$4,$5,$6,$7,$8,$9,$2,$3,0*
0 Add four circle primitives for the rounded corners*
1,1,$1+$1,$2,$3*
1,1,$1+$1,$4,$5*
1,1,$1+$1,$6,$7*
1,1,$1+$1,$8,$9*
0 Add four rect primitives between the rounded corners*
20,1,$1+$1,$2,$3,$4,$5,0*
20,1,$1+$1,$4,$5,$6,$7,0*
20,1,$1+$1,$6,$7,$8,$9,0*
20,1,$1+$1,$8,$9,$2,$3,0*%
%AMFreePoly0*
4,1,60,0.301896,0.185218,0.490253,0.107198,0.659769,-0.006069,0.803931,-0.150231,0.917198,-0.319747,0.995218,-0.508104,1.034992,-0.708062,1.034992,-0.911938,0.995218,-1.111896,0.917198,-1.300253,0.803931,-1.469769,0.659769,-1.613931,0.490253,-1.727198,0.301896,-1.805218,0.101938,-1.844992,-0.101938,-1.844992,-0.301896,-1.805218,-0.490253,-1.727198,-0.659769,-1.613931,-0.803931,-1.469769,
-0.917198,-1.300253,-0.995218,-1.111896,-1.034992,-0.911938,-1.034992,-0.733642,-0.580000,-0.733642,-0.580000,-0.886358,-0.540474,-1.033872,-0.464116,-1.166128,-0.356128,-1.274116,-0.223872,-1.350474,-0.076358,-1.390000,0.076358,-1.390000,0.223872,-1.350474,0.356128,-1.274116,0.464116,-1.166128,0.540474,-1.033872,0.580000,-0.886358,0.580000,-0.733642,0.540474,-0.586128,0.464116,-0.453872,
0.356128,-0.345884,0.223872,-0.269526,0.076358,-0.230000,-0.076358,-0.230000,-0.223872,-0.269526,-0.356128,-0.345884,-0.464116,-0.453872,-0.540474,-0.586128,-0.580000,-0.733642,-1.034992,-0.733642,-1.034992,-0.708062,-0.995218,-0.508104,-0.917198,-0.319747,-0.803931,-0.150231,-0.659769,-0.006069,-0.490253,0.107198,-0.301896,0.185218,-0.101938,0.224992,0.101938,0.224992,0.301896,0.185218,
0.301896,0.185218,$1*%
G04 Aperture macros list end*
%ADD10C,0.150000*%
%ADD11C,0.120000*%
%ADD12R,1.000000X0.750000*%
%ADD13RoundRect,0.218750X-0.218750X-0.256250X0.218750X-0.256250X0.218750X0.256250X-0.218750X0.256250X0*%
%ADD14RoundRect,0.225000X-0.225000X-0.250000X0.225000X-0.250000X0.225000X0.250000X-0.225000X0.250000X0*%
%ADD15R,1.270000X5.080000*%
%ADD16C,17.800000*%
%ADD17RoundRect,0.200000X-0.200000X-0.275000X0.200000X-0.275000X0.200000X0.275000X-0.200000X0.275000X0*%
%ADD18C,0.800000*%
%ADD19R,0.450000X0.700000*%
%ADD20FreePoly0,180.000000*%
%ADD21C,3.200000*%
%ADD22R,1.700000X1.700000*%
%ADD23C,1.700000*%
%ADD24RoundRect,0.225000X0.250000X-0.225000X0.250000X0.225000X-0.250000X0.225000X-0.250000X-0.225000X0*%
%ADD25RoundRect,0.100000X0.100000X-0.637500X0.100000X0.637500X-0.100000X0.637500X-0.100000X-0.637500X0*%
G04 APERTURE END LIST*
D10*
X3195238Y23242468D02*
X3804762Y23242468D01*
X3500000Y22937706D02*
X3500000Y23547230D01*
X5830476Y22937706D02*
X5830476Y23737706D01*
X5830476Y23737706D02*
X6020952Y23737706D01*
X6020952Y23737706D02*
X6135238Y23699611D01*
X6135238Y23699611D02*
X6211428Y23623421D01*
X6211428Y23623421D02*
X6249523Y23547230D01*
X6249523Y23547230D02*
X6287619Y23394849D01*
X6287619Y23394849D02*
X6287619Y23280563D01*
X6287619Y23280563D02*
X6249523Y23128182D01*
X6249523Y23128182D02*
X6211428Y23051992D01*
X6211428Y23051992D02*
X6135238Y22975801D01*
X6135238Y22975801D02*
X6020952Y22937706D01*
X6020952Y22937706D02*
X5830476Y22937706D01*
X8789523Y23699611D02*
X8713333Y23737706D01*
X8713333Y23737706D02*
X8599047Y23737706D01*
X8599047Y23737706D02*
X8484761Y23699611D01*
X8484761Y23699611D02*
X8408571Y23623421D01*
X8408571Y23623421D02*
X8370476Y23547230D01*
X8370476Y23547230D02*
X8332380Y23394849D01*
X8332380Y23394849D02*
X8332380Y23280563D01*
X8332380Y23280563D02*
X8370476Y23128182D01*
X8370476Y23128182D02*
X8408571Y23051992D01*
X8408571Y23051992D02*
X8484761Y22975801D01*
X8484761Y22975801D02*
X8599047Y22937706D01*
X8599047Y22937706D02*
X8675238Y22937706D01*
X8675238Y22937706D02*
X8789523Y22975801D01*
X8789523Y22975801D02*
X8827619Y23013897D01*
X8827619Y23013897D02*
X8827619Y23280563D01*
X8827619Y23280563D02*
X8675238Y23280563D01*
X10891428Y23737706D02*
X11348571Y23737706D01*
X11119999Y22937706D02*
X11119999Y23737706D01*
%TO.C,SW1*%
D11*
X21250000Y27000000D02*
X21250000Y25000000D01*
X22250000Y28300000D02*
X22700000Y28750000D01*
X22250000Y23700000D02*
X22700000Y23250000D01*
X22700000Y28750000D02*
X25300000Y28750000D01*
X22700000Y23250000D02*
X25300000Y23250000D01*
X25750000Y28300000D02*
X25300000Y28750000D01*
X25750000Y23700000D02*
X25300000Y23250000D01*
X26750000Y27000000D02*
X26750000Y25000000D01*
%TO.C,D4*%
X24015000Y49235000D02*
X24015000Y47765000D01*
X24015000Y47765000D02*
X26300000Y47765000D01*
X26300000Y49235000D02*
X24015000Y49235000D01*
%TO.C,C2*%
X12859420Y28710000D02*
X13140580Y28710000D01*
X12859420Y27690000D02*
X13140580Y27690000D01*
%TO.C,BT1*%
X4220000Y16960000D02*
X4220000Y14500000D01*
X4220000Y8500000D02*
X4220000Y7870000D01*
X4220000Y7870000D02*
X5660000Y3920000D01*
X6300000Y19040000D02*
X4220000Y16960000D01*
X9800000Y19040000D02*
X6300000Y19040000D01*
X23700000Y19040000D02*
X20200000Y19040000D01*
X23700000Y19040000D02*
X25780000Y16960000D01*
X25780000Y16960000D02*
X25780000Y14500000D01*
X25780000Y8500000D02*
X25780000Y7870000D01*
X25780000Y7870000D02*
X24340000Y3920000D01*
X8996646Y2933470D02*
G75*
G02*
X5660000Y3920000I-1306646J1716531D01*
G01*
X24325243Y3911831D02*
G75*
G02*
X21000000Y2950000I-2015243J738169D01*
G01*
%TO.C,R4*%
X4262742Y46022500D02*
X4737258Y46022500D01*
X4262742Y44977500D02*
X4737258Y44977500D01*
%TO.C,D1*%
X3015000Y49235000D02*
X3015000Y47765000D01*
X3015000Y47765000D02*
X5300000Y47765000D01*
X5300000Y49235000D02*
X3015000Y49235000D01*
%TO.C,D2*%
X7515000Y49235000D02*
X7515000Y47765000D01*
X7515000Y47765000D02*
X9800000Y47765000D01*
X9800000Y49235000D02*
X7515000Y49235000D01*
%TO.C,MK1*%
X12890000Y42110000D02*
X17110000Y42110000D01*
X12890000Y38890000D02*
X12890000Y42110000D01*
X16810000Y38890000D02*
X12890000Y38890000D01*
X17110000Y42110000D02*
X17110000Y39190000D01*
X17110000Y38890000D02*
X17390000Y38890000D01*
X17110000Y38610000D01*
X17110000Y38890000D01*
G36*
X17110000Y38610000D02*
G01*
X17110000Y38890000D01*
X17390000Y38890000D01*
X17110000Y38610000D01*
G37*
%TO.C,D3*%
X19515000Y49235000D02*
X19515000Y47765000D01*
X19515000Y47765000D02*
X21800000Y47765000D01*
X21800000Y49235000D02*
X19515000Y49235000D01*
%TO.C,R5*%
X8762742Y46022500D02*
X9237258Y46022500D01*
X8762742Y44977500D02*
X9237258Y44977500D01*
%TO.C,R7*%
X25262742Y46022500D02*
X25737258Y46022500D01*
X25262742Y44977500D02*
X25737258Y44977500D01*
%TO.C,C1*%
X16859420Y28710000D02*
X17140580Y28710000D01*
X16859420Y27690000D02*
X17140580Y27690000D01*
%TO.C,J1*%
X2120000Y24120000D02*
X2120000Y25500000D01*
X3500000Y24120000D02*
X2120000Y24120000D01*
X4770000Y26880000D02*
X12500000Y26880000D01*
X4770000Y24120000D02*
X4770000Y26880000D01*
X4770000Y24120000D02*
X12500000Y24120000D01*
X12500000Y24120000D02*
X12500000Y26880000D01*
%TO.C,C3*%
X18990000Y40359420D02*
X18990000Y40640580D01*
X20010000Y40359420D02*
X20010000Y40640580D01*
%TO.C,U1*%
X11615000Y31190000D02*
X11615000Y35810000D01*
X18385000Y35810000D02*
X18385000Y31190000D01*
X12070000Y29640000D02*
X12310000Y29310000D01*
X11830000Y29310000D01*
X12070000Y29640000D01*
G36*
X12310000Y29310000D02*
G01*
X11830000Y29310000D01*
X12070000Y29640000D01*
X12310000Y29310000D01*
G37*
%TO.C,R6*%
X20762742Y46022500D02*
X21237258Y46022500D01*
X20762742Y44977500D02*
X21237258Y44977500D01*
%TD*%
%LPC*%
D12*
%TO.C,SW1*%
X21000000Y27875000D03*
X27000000Y27875000D03*
X21000000Y24125000D03*
X27000000Y24125000D03*
%TD*%
D13*
%TO.C,D4*%
X24712500Y48500000D03*
X26287500Y48500000D03*
%TD*%
D14*
%TO.C,C2*%
X12225000Y28200000D03*
X13775000Y28200000D03*
%TD*%
D15*
%TO.C,BT1*%
X4015000Y11500000D03*
X25985000Y11500000D03*
D16*
X15000000Y11500000D03*
%TD*%
D17*
%TO.C,R4*%
X3675000Y45500000D03*
X5325000Y45500000D03*
%TD*%
D13*
%TO.C,D1*%
X3712500Y48500000D03*
X5287500Y48500000D03*
%TD*%
%TO.C,D2*%
X8212500Y48500000D03*
X9787500Y48500000D03*
%TD*%
D18*
%TO.C,MK1*%
X14320000Y40500000D03*
D19*
X16500000Y39650000D03*
X15800000Y39650000D03*
X16500000Y41350000D03*
X15800000Y41350000D03*
D20*
X14320000Y39690000D03*
%TD*%
D13*
%TO.C,D3*%
X20212500Y48500000D03*
X21787500Y48500000D03*
%TD*%
D21*
%TO.C,H1*%
X15000000Y47500000D03*
%TD*%
D17*
%TO.C,R5*%
X8175000Y45500000D03*
X9825000Y45500000D03*
%TD*%
%TO.C,R7*%
X24675000Y45500000D03*
X26325000Y45500000D03*
%TD*%
D14*
%TO.C,C1*%
X16225000Y28200000D03*
X17775000Y28200000D03*
%TD*%
D22*
%TO.C,J1*%
X3500000Y25500000D03*
D23*
X6040000Y25500000D03*
X8580000Y25500000D03*
X11120000Y25500000D03*
%TD*%
D24*
%TO.C,C3*%
X19500000Y39725000D03*
X19500000Y41275000D03*
%TD*%
D25*
%TO.C,U1*%
X12075000Y30637500D03*
X12725000Y30637500D03*
X13375000Y30637500D03*
X14025000Y30637500D03*
X14675000Y30637500D03*
X15325000Y30637500D03*
X15975000Y30637500D03*
X16625000Y30637500D03*
X17275000Y30637500D03*
X17925000Y30637500D03*
X17925000Y36362500D03*
X17275000Y36362500D03*
X16625000Y36362500D03*
X15975000Y36362500D03*
X15325000Y36362500D03*
X14675000Y36362500D03*
X14025000Y36362500D03*
X13375000Y36362500D03*
X12725000Y36362500D03*
X12075000Y36362500D03*
%TD*%
D17*
%TO.C,R6*%
X20175000Y45500000D03*
X21825000Y45500000D03*
%TD*%
%LPD*%
M02*
