%TF.GenerationSoftware,KiCad,Pcbnew,10.0.6*%
%TF.CreationDate,2026-09-27T19:36:45+00:00*%
%TF.ProjectId,dbfob,6462666f-622e-46b6-9963-61645f706362,rev?*%
%TF.SameCoordinates,Original*%
%TF.FileFunction,Soldermask,Top*%
%TF.FilePolarity,Negative*%
%FSLAX46Y46*%
G04 Gerber Fmt 4.6, Leading zero omitted, Abs format (unit mm)*
G04 Created by KiCad (PCBNEW 10.0.6) date 2026-09-27 19:36:45*
%MOMM*%
%LPD*%
G01*
G04 APERTURE LIST*
G04 Aperture macros list*
%AMRoundRect*
0 Rectangle with rounded corners*
0 $1 Rounding radius*
0 $2 $3 $4 $5 $6 $7 $8 $9 X,Y pos of 4 corners*
0 Add a 4 corners polygon primitive as box body*
4,1,4,$2,$3,$4,$5,$6,$7,$8,$9,$2,$3,0*
0 Add four circle primitives for the rounded corners*
1,1,$1+$1,$2,$3*
1,1,$1+$1,$4,$5*
1,1,$1+$1,$6,$7*
1,1,$1+$1,$8,$9*
0 Add four rect primitives between the rounded corners*
20,1,$1+$1,$2,$3,$4,$5,0*
20,1,$1+$1,$4,$5,$6,$7,0*
20,1,$1+$1,$6,$7,$8,$9,0*
20,1,$1+$1,$8,$9,$2,$3,0*%
%AMFreePoly0*
4,1,60,0.301896,0.185218,0.490253,0.107198,0.659769,-0.006069,0.803931,-0.150231,0.917198,-0.319747,0.995218,-0.508104,1.034992,-0.708062,1.034992,-0.911938,0.995218,-1.111896,0.917198,-1.300253,0.803931,-1.469769,0.659769,-1.613931,0.490253,-1.727198,0.301896,-1.805218,0.101938,-1.844992,-0.101938,-1.844992,-0.301896,-1.805218,-0.490253,-1.727198,-0.659769,-1.613931,-0.803931,-1.469769,
-0.917198,-1.300253,-0.995218,-1.111896,-1.034992,-0.911938,-1.034992,-0.733642,-0.580000,-0.733642,-0.580000,-0.886358,-0.540474,-1.033872,-0.464116,-1.166128,-0.356128,-1.274116,-0.223872,-1.350474,-0.076358,-1.390000,0.076358,-1.390000,0.223872,-1.350474,0.356128,-1.274116,0.464116,-1.166128,0.540474,-1.033872,0.580000,-0.886358,0.580000,-0.733642,0.540474,-0.586128,0.464116,-0.453872,
0.356128,-0.345884,0.223872,-0.269526,0.076358,-0.230000,-0.076358,-0.230000,-0.223872,-0.269526,-0.356128,-0.345884,-0.464116,-0.453872,-0.540474,-0.586128,-0.580000,-0.733642,-1.034992,-0.733642,-1.034992,-0.708062,-0.995218,-0.508104,-0.917198,-0.319747,-0.803931,-0.150231,-0.659769,-0.006069,-0.490253,0.107198,-0.301896,0.185218,-0.101938,0.224992,0.101938,0.224992,0.301896,0.185218,
0.301896,0.185218,$1*%
G04 Aperture macros list end*
%ADD10R,1.000000X0.750000*%
%ADD11RoundRect,0.218750X-0.218750X-0.256250X0.218750X-0.256250X0.218750X0.256250X-0.218750X0.256250X0*%
%ADD12RoundRect,0.225000X-0.225000X-0.250000X0.225000X-0.250000X0.225000X0.250000X-0.225000X0.250000X0*%
%ADD13R,1.270000X5.080000*%
%ADD14C,17.800000*%
%ADD15RoundRect,0.200000X-0.200000X-0.275000X0.200000X-0.275000X0.200000X0.275000X-0.200000X0.275000X0*%
%ADD16C,0.800000*%
%ADD17R,0.450000X0.700000*%
%ADD18FreePoly0,180.000000*%
%ADD19C,3.200000*%
%ADD20R,1.700000X1.700000*%
%ADD21C,1.700000*%
%ADD22RoundRect,0.225000X0.250000X-0.225000X0.250000X0.225000X-0.250000X0.225000X-0.250000X-0.225000X0*%
%ADD23RoundRect,0.100000X0.100000X-0.637500X0.100000X0.637500X-0.100000X0.637500X-0.100000X-0.637500X0*%
G04 APERTURE END LIST*
D10*
%TO.C,SW1*%
X21000000Y27875000D03*
X27000000Y27875000D03*
X21000000Y24125000D03*
X27000000Y24125000D03*
%TD*%
D11*
%TO.C,D4*%
X24712500Y48500000D03*
X26287500Y48500000D03*
%TD*%
D12*
%TO.C,C2*%
X12225000Y28200000D03*
X13775000Y28200000D03*
%TD*%
D13*
%TO.C,BT1*%
X4015000Y11500000D03*
X25985000Y11500000D03*
D14*
X15000000Y11500000D03*
%TD*%
D15*
%TO.C,R4*%
X3675000Y45500000D03*
X5325000Y45500000D03*
%TD*%
D11*
%TO.C,D1*%
X3712500Y48500000D03*
X5287500Y48500000D03*
%TD*%
%TO.C,D2*%
X8212500Y48500000D03*
X9787500Y48500000D03*
%TD*%
D16*
%TO.C,MK1*%
X14320000Y40500000D03*
D17*
X16500000Y39650000D03*
X15800000Y39650000D03*
X16500000Y41350000D03*
X15800000Y41350000D03*
D18*
X14320000Y39690000D03*
%TD*%
D11*
%TO.C,D3*%
X20212500Y48500000D03*
X21787500Y48500000D03*
%TD*%
D19*
%TO.C,H1*%
X15000000Y47500000D03*
%TD*%
D15*
%TO.C,R5*%
X8175000Y45500000D03*
X9825000Y45500000D03*
%TD*%
%TO.C,R7*%
X24675000Y45500000D03*
X26325000Y45500000D03*
%TD*%
D12*
%TO.C,C1*%
X16225000Y28200000D03*
X17775000Y28200000D03*
%TD*%
D20*
%TO.C,J1*%
X3500000Y25500000D03*
D21*
X6040000Y25500000D03*
X8580000Y25500000D03*
X11120000Y25500000D03*
%TD*%
D22*
%TO.C,C3*%
X19500000Y39725000D03*
X19500000Y41275000D03*
%TD*%
D23*
%TO.C,U1*%
X12075000Y30637500D03*
X12725000Y30637500D03*
X13375000Y30637500D03*
X14025000Y30637500D03*
X14675000Y30637500D03*
X15325000Y30637500D03*
X15975000Y30637500D03*
X16625000Y30637500D03*
X17275000Y30637500D03*
X17925000Y30637500D03*
X17925000Y36362500D03*
X17275000Y36362500D03*
X16625000Y36362500D03*
X15975000Y36362500D03*
X15325000Y36362500D03*
X14675000Y36362500D03*
X14025000Y36362500D03*
X13375000Y36362500D03*
X12725000Y36362500D03*
X12075000Y36362500D03*
%TD*%
D15*
%TO.C,R6*%
X20175000Y45500000D03*
X21825000Y45500000D03*
%TD*%
M02*
